G04 #@! TF.GenerationSoftware,KiCad,Pcbnew,7.0.7*
G04 #@! TF.CreationDate,2023-09-15T22:30:58+02:00*
G04 #@! TF.ProjectId,Nixie PSU,4e697869-6520-4505-9355-2e6b69636164,rev?*
G04 #@! TF.SameCoordinates,Original*
G04 #@! TF.FileFunction,Copper,L1,Top*
G04 #@! TF.FilePolarity,Positive*
%FSLAX46Y46*%
G04 Gerber Fmt 4.6, Leading zero omitted, Abs format (unit mm)*
G04 Created by KiCad (PCBNEW 7.0.7) date 2023-09-15 22:30:58*
%MOMM*%
%LPD*%
G01*
G04 APERTURE LIST*
G04 Aperture macros list*
%AMRoundRect*
0 Rectangle with rounded corners*
0 $1 Rounding radius*
0 $2 $3 $4 $5 $6 $7 $8 $9 X,Y pos of 4 corners*
0 Add a 4 corners polygon primitive as box body*
4,1,4,$2,$3,$4,$5,$6,$7,$8,$9,$2,$3,0*
0 Add four circle primitives for the rounded corners*
1,1,$1+$1,$2,$3*
1,1,$1+$1,$4,$5*
1,1,$1+$1,$6,$7*
1,1,$1+$1,$8,$9*
0 Add four rect primitives between the rounded corners*
20,1,$1+$1,$2,$3,$4,$5,0*
20,1,$1+$1,$4,$5,$6,$7,0*
20,1,$1+$1,$6,$7,$8,$9,0*
20,1,$1+$1,$8,$9,$2,$3,0*%
%AMFreePoly0*
4,1,12,0.150002,0.449999,0.150002,-0.100002,0.100000,-0.150002,-0.399999,-0.150000,-0.449999,-0.100002,-0.449999,0.100000,-0.399999,0.150000,-0.100000,0.150000,-0.100000,0.449999,-0.050000,0.499999,0.100000,0.499999,0.150002,0.449999,0.150002,0.449999,$1*%
%AMFreePoly1*
4,1,12,0.149997,0.149997,0.149999,-0.400002,0.099997,-0.450002,-0.050000,-0.450002,-0.100000,-0.400002,-0.100003,-0.100003,-0.400002,-0.100003,-0.450002,-0.050003,-0.450002,0.149999,-0.400002,0.199997,0.099997,0.199999,0.149997,0.149997,0.149997,0.149997,$1*%
%AMFreePoly2*
4,1,12,0.400002,0.199997,0.450002,0.149999,0.450002,-0.050003,0.400002,-0.100003,0.100003,-0.100003,0.100000,-0.400002,0.050000,-0.450002,-0.099997,-0.450002,-0.149999,-0.400002,-0.149999,0.149999,-0.099997,0.199999,0.400002,0.199997,0.400002,0.199997,$1*%
%AMFreePoly3*
4,1,12,0.100000,0.449999,0.100003,0.150000,0.400002,0.150000,0.450002,0.100000,0.450002,-0.100002,0.400002,-0.150000,-0.099997,-0.150002,-0.149999,-0.100002,-0.149999,0.449999,-0.099997,0.499999,0.050000,0.499999,0.100000,0.449999,0.100000,0.449999,$1*%
G04 Aperture macros list end*
G04 #@! TA.AperFunction,SMDPad,CuDef*
%ADD10RoundRect,0.150000X-0.587500X-0.150000X0.587500X-0.150000X0.587500X0.150000X-0.587500X0.150000X0*%
G04 #@! TD*
G04 #@! TA.AperFunction,ComponentPad*
%ADD11R,1.600000X1.600000*%
G04 #@! TD*
G04 #@! TA.AperFunction,ComponentPad*
%ADD12C,1.600000*%
G04 #@! TD*
G04 #@! TA.AperFunction,SMDPad,CuDef*
%ADD13RoundRect,0.250000X-0.625000X0.400000X-0.625000X-0.400000X0.625000X-0.400000X0.625000X0.400000X0*%
G04 #@! TD*
G04 #@! TA.AperFunction,SMDPad,CuDef*
%ADD14RoundRect,0.250000X-0.450000X0.350000X-0.450000X-0.350000X0.450000X-0.350000X0.450000X0.350000X0*%
G04 #@! TD*
G04 #@! TA.AperFunction,SMDPad,CuDef*
%ADD15RoundRect,0.250000X-0.337500X-0.475000X0.337500X-0.475000X0.337500X0.475000X-0.337500X0.475000X0*%
G04 #@! TD*
G04 #@! TA.AperFunction,SMDPad,CuDef*
%ADD16RoundRect,0.250000X-0.475000X0.337500X-0.475000X-0.337500X0.475000X-0.337500X0.475000X0.337500X0*%
G04 #@! TD*
G04 #@! TA.AperFunction,SMDPad,CuDef*
%ADD17RoundRect,0.250000X0.800000X-0.450000X0.800000X0.450000X-0.800000X0.450000X-0.800000X-0.450000X0*%
G04 #@! TD*
G04 #@! TA.AperFunction,SMDPad,CuDef*
%ADD18RoundRect,0.250000X-0.412500X-1.100000X0.412500X-1.100000X0.412500X1.100000X-0.412500X1.100000X0*%
G04 #@! TD*
G04 #@! TA.AperFunction,SMDPad,CuDef*
%ADD19RoundRect,0.250000X-0.400000X-0.625000X0.400000X-0.625000X0.400000X0.625000X-0.400000X0.625000X0*%
G04 #@! TD*
G04 #@! TA.AperFunction,SMDPad,CuDef*
%ADD20RoundRect,0.150000X0.512500X0.150000X-0.512500X0.150000X-0.512500X-0.150000X0.512500X-0.150000X0*%
G04 #@! TD*
G04 #@! TA.AperFunction,ComponentPad*
%ADD21C,1.530000*%
G04 #@! TD*
G04 #@! TA.AperFunction,SMDPad,CuDef*
%ADD22RoundRect,0.225000X-0.225000X-0.375000X0.225000X-0.375000X0.225000X0.375000X-0.225000X0.375000X0*%
G04 #@! TD*
G04 #@! TA.AperFunction,SMDPad,CuDef*
%ADD23RoundRect,0.250000X0.337500X0.475000X-0.337500X0.475000X-0.337500X-0.475000X0.337500X-0.475000X0*%
G04 #@! TD*
G04 #@! TA.AperFunction,SMDPad,CuDef*
%ADD24RoundRect,0.250000X0.475000X-0.337500X0.475000X0.337500X-0.475000X0.337500X-0.475000X-0.337500X0*%
G04 #@! TD*
G04 #@! TA.AperFunction,SMDPad,CuDef*
%ADD25RoundRect,0.250000X0.450000X-0.350000X0.450000X0.350000X-0.450000X0.350000X-0.450000X-0.350000X0*%
G04 #@! TD*
G04 #@! TA.AperFunction,SMDPad,CuDef*
%ADD26RoundRect,0.250000X-0.450000X-0.800000X0.450000X-0.800000X0.450000X0.800000X-0.450000X0.800000X0*%
G04 #@! TD*
G04 #@! TA.AperFunction,ComponentPad*
%ADD27C,2.000000*%
G04 #@! TD*
G04 #@! TA.AperFunction,SMDPad,CuDef*
%ADD28RoundRect,0.150000X-0.512500X-0.150000X0.512500X-0.150000X0.512500X0.150000X-0.512500X0.150000X0*%
G04 #@! TD*
G04 #@! TA.AperFunction,SMDPad,CuDef*
%ADD29RoundRect,0.250000X0.412500X0.650000X-0.412500X0.650000X-0.412500X-0.650000X0.412500X-0.650000X0*%
G04 #@! TD*
G04 #@! TA.AperFunction,SMDPad,CuDef*
%ADD30RoundRect,0.250000X0.350000X0.450000X-0.350000X0.450000X-0.350000X-0.450000X0.350000X-0.450000X0*%
G04 #@! TD*
G04 #@! TA.AperFunction,SMDPad,CuDef*
%ADD31R,0.450000X1.450000*%
G04 #@! TD*
G04 #@! TA.AperFunction,SMDPad,CuDef*
%ADD32RoundRect,0.250000X-0.550000X1.050000X-0.550000X-1.050000X0.550000X-1.050000X0.550000X1.050000X0*%
G04 #@! TD*
G04 #@! TA.AperFunction,SMDPad,CuDef*
%ADD33RoundRect,0.250000X0.450000X0.800000X-0.450000X0.800000X-0.450000X-0.800000X0.450000X-0.800000X0*%
G04 #@! TD*
G04 #@! TA.AperFunction,ComponentPad*
%ADD34R,1.390000X1.390000*%
G04 #@! TD*
G04 #@! TA.AperFunction,ComponentPad*
%ADD35C,1.390000*%
G04 #@! TD*
G04 #@! TA.AperFunction,SMDPad,CuDef*
%ADD36RoundRect,0.250000X-1.100000X0.412500X-1.100000X-0.412500X1.100000X-0.412500X1.100000X0.412500X0*%
G04 #@! TD*
G04 #@! TA.AperFunction,SMDPad,CuDef*
%ADD37RoundRect,0.250000X0.400000X0.625000X-0.400000X0.625000X-0.400000X-0.625000X0.400000X-0.625000X0*%
G04 #@! TD*
G04 #@! TA.AperFunction,SMDPad,CuDef*
%ADD38RoundRect,0.200000X-0.250000X0.200000X-0.250000X-0.200000X0.250000X-0.200000X0.250000X0.200000X0*%
G04 #@! TD*
G04 #@! TA.AperFunction,SMDPad,CuDef*
%ADD39FreePoly0,180.000000*%
G04 #@! TD*
G04 #@! TA.AperFunction,SMDPad,CuDef*
%ADD40R,0.599999X0.249999*%
G04 #@! TD*
G04 #@! TA.AperFunction,SMDPad,CuDef*
%ADD41FreePoly1,180.000000*%
G04 #@! TD*
G04 #@! TA.AperFunction,SMDPad,CuDef*
%ADD42R,0.299999X2.400000*%
G04 #@! TD*
G04 #@! TA.AperFunction,SMDPad,CuDef*
%ADD43FreePoly2,180.000000*%
G04 #@! TD*
G04 #@! TA.AperFunction,SMDPad,CuDef*
%ADD44FreePoly3,180.000000*%
G04 #@! TD*
G04 #@! TA.AperFunction,SMDPad,CuDef*
%ADD45RoundRect,0.250000X0.400000X1.075000X-0.400000X1.075000X-0.400000X-1.075000X0.400000X-1.075000X0*%
G04 #@! TD*
G04 #@! TA.AperFunction,SMDPad,CuDef*
%ADD46RoundRect,0.225000X0.225000X0.375000X-0.225000X0.375000X-0.225000X-0.375000X0.225000X-0.375000X0*%
G04 #@! TD*
G04 #@! TA.AperFunction,SMDPad,CuDef*
%ADD47RoundRect,0.250000X0.412500X1.100000X-0.412500X1.100000X-0.412500X-1.100000X0.412500X-1.100000X0*%
G04 #@! TD*
G04 #@! TA.AperFunction,SMDPad,CuDef*
%ADD48RoundRect,0.100000X-0.100000X0.637500X-0.100000X-0.637500X0.100000X-0.637500X0.100000X0.637500X0*%
G04 #@! TD*
G04 #@! TA.AperFunction,SMDPad,CuDef*
%ADD49RoundRect,0.250000X0.350000X-0.850000X0.350000X0.850000X-0.350000X0.850000X-0.350000X-0.850000X0*%
G04 #@! TD*
G04 #@! TA.AperFunction,SMDPad,CuDef*
%ADD50RoundRect,0.250000X1.125000X-1.275000X1.125000X1.275000X-1.125000X1.275000X-1.125000X-1.275000X0*%
G04 #@! TD*
G04 #@! TA.AperFunction,SMDPad,CuDef*
%ADD51RoundRect,0.249997X2.650003X-2.950003X2.650003X2.950003X-2.650003X2.950003X-2.650003X-2.950003X0*%
G04 #@! TD*
G04 #@! TA.AperFunction,SMDPad,CuDef*
%ADD52RoundRect,0.250000X-0.350000X-0.450000X0.350000X-0.450000X0.350000X0.450000X-0.350000X0.450000X0*%
G04 #@! TD*
G04 #@! TA.AperFunction,SMDPad,CuDef*
%ADD53RoundRect,0.447500X0.447500X-1.202500X0.447500X1.202500X-0.447500X1.202500X-0.447500X-1.202500X0*%
G04 #@! TD*
G04 #@! TA.AperFunction,SMDPad,CuDef*
%ADD54RoundRect,0.250000X0.400000X1.450000X-0.400000X1.450000X-0.400000X-1.450000X0.400000X-1.450000X0*%
G04 #@! TD*
G04 #@! TA.AperFunction,SMDPad,CuDef*
%ADD55R,0.499999X0.249999*%
G04 #@! TD*
G04 #@! TA.AperFunction,ComponentPad*
%ADD56C,0.600000*%
G04 #@! TD*
G04 #@! TA.AperFunction,SMDPad,CuDef*
%ADD57R,1.000000X2.650000*%
G04 #@! TD*
G04 #@! TA.AperFunction,SMDPad,CuDef*
%ADD58R,1.500000X2.750000*%
G04 #@! TD*
G04 #@! TA.AperFunction,ViaPad*
%ADD59C,0.600000*%
G04 #@! TD*
G04 #@! TA.AperFunction,ViaPad*
%ADD60C,0.800000*%
G04 #@! TD*
G04 #@! TA.AperFunction,Conductor*
%ADD61C,1.000000*%
G04 #@! TD*
G04 #@! TA.AperFunction,Conductor*
%ADD62C,0.250000*%
G04 #@! TD*
G04 #@! TA.AperFunction,Conductor*
%ADD63C,0.500000*%
G04 #@! TD*
G04 #@! TA.AperFunction,Conductor*
%ADD64C,0.200000*%
G04 #@! TD*
G04 #@! TA.AperFunction,Conductor*
%ADD65C,0.400000*%
G04 #@! TD*
G04 #@! TA.AperFunction,Conductor*
%ADD66C,0.300000*%
G04 #@! TD*
G04 #@! TA.AperFunction,Conductor*
%ADD67C,1.500000*%
G04 #@! TD*
G04 #@! TA.AperFunction,Conductor*
%ADD68C,2.000000*%
G04 #@! TD*
G04 APERTURE END LIST*
D10*
X111838500Y-82616000D03*
X111838500Y-84516000D03*
X113713500Y-83566000D03*
D11*
X159652651Y-65000000D03*
D12*
X156152651Y-65000000D03*
X157000000Y-82000000D03*
X152000000Y-82000000D03*
D13*
X111887000Y-90398000D03*
X111887000Y-93498000D03*
D14*
X168148000Y-100092000D03*
X168148000Y-102092000D03*
D15*
X157966500Y-104902000D03*
X160041500Y-104902000D03*
D14*
X161544000Y-98060000D03*
X161544000Y-100060000D03*
D16*
X146812000Y-105642500D03*
X146812000Y-107717500D03*
D17*
X150622000Y-90592000D03*
X150622000Y-86192000D03*
D18*
X148937500Y-66000000D03*
X152062500Y-66000000D03*
D19*
X147040000Y-95250000D03*
X150140000Y-95250000D03*
D20*
X187301500Y-102096000D03*
X187301500Y-100196000D03*
X185026500Y-101146000D03*
D21*
X164500000Y-90000000D03*
D22*
X179350000Y-64000000D03*
X182650000Y-64000000D03*
D21*
X118100000Y-59800000D03*
D23*
X117318700Y-91948000D03*
X115243700Y-91948000D03*
D24*
X168656000Y-85365500D03*
X168656000Y-83290500D03*
D25*
X176700000Y-71700000D03*
X176700000Y-69700000D03*
D21*
X132588000Y-94234000D03*
D14*
X149352000Y-105934000D03*
X149352000Y-107934000D03*
D25*
X126492000Y-95234000D03*
X126492000Y-93234000D03*
D15*
X173526500Y-74146000D03*
X175601500Y-74146000D03*
D11*
X159652651Y-74000000D03*
D12*
X156152651Y-74000000D03*
D26*
X121879000Y-60452000D03*
X126279000Y-60452000D03*
D27*
X124888000Y-66000000D03*
X114888000Y-66000000D03*
D28*
X174926500Y-94396000D03*
X174926500Y-96296000D03*
X177201500Y-95346000D03*
D25*
X162800000Y-85600000D03*
X162800000Y-83600000D03*
D23*
X157501500Y-99060000D03*
X155426500Y-99060000D03*
D20*
X187301500Y-97650000D03*
X187301500Y-95750000D03*
X185026500Y-96700000D03*
D21*
X164084000Y-79248000D03*
D29*
X114973500Y-87630000D03*
X111848500Y-87630000D03*
D30*
X176000000Y-103500000D03*
X174000000Y-103500000D03*
D23*
X157501500Y-96520000D03*
X155426500Y-96520000D03*
X181537500Y-78700000D03*
X179462500Y-78700000D03*
D31*
X174625000Y-87100000D03*
X175275000Y-87100000D03*
X175925000Y-87100000D03*
X176575000Y-87100000D03*
X176575000Y-82700000D03*
X175925000Y-82700000D03*
X175275000Y-82700000D03*
X174625000Y-82700000D03*
D15*
X157966500Y-107442000D03*
X160041500Y-107442000D03*
D23*
X157501500Y-93726000D03*
X155426500Y-93726000D03*
D32*
X173464000Y-58246000D03*
X173464000Y-61846000D03*
D33*
X160200000Y-58420000D03*
X155800000Y-58420000D03*
D30*
X181848000Y-95758000D03*
X179848000Y-95758000D03*
D34*
X190270000Y-76920000D03*
D35*
X187730000Y-76920000D03*
X190270000Y-79460000D03*
X187730000Y-79460000D03*
X190270000Y-82000000D03*
X187730000Y-82000000D03*
X190270000Y-84540000D03*
X187730000Y-84540000D03*
X190270000Y-87080000D03*
X187730000Y-87080000D03*
D36*
X152000000Y-58437500D03*
X152000000Y-61562500D03*
D24*
X148082000Y-100859500D03*
X148082000Y-98784500D03*
D21*
X146050000Y-90678000D03*
D25*
X171900000Y-90000000D03*
X171900000Y-88000000D03*
D37*
X156998000Y-90932000D03*
X153898000Y-90932000D03*
D25*
X168148000Y-79232000D03*
X168148000Y-77232000D03*
D23*
X169185500Y-94234000D03*
X167110500Y-94234000D03*
D30*
X166084000Y-62992000D03*
X164084000Y-62992000D03*
D15*
X174262500Y-78800000D03*
X176337500Y-78800000D03*
D30*
X169640000Y-58166000D03*
X167640000Y-58166000D03*
D14*
X170942000Y-99076000D03*
X170942000Y-101076000D03*
D30*
X144000000Y-105500000D03*
X142000000Y-105500000D03*
D38*
X121617500Y-82743000D03*
X121617500Y-84643000D03*
X123617500Y-83693000D03*
D39*
X171664001Y-70346001D03*
D40*
X171814001Y-69871001D03*
X171814001Y-69420999D03*
D41*
X171663998Y-68896002D03*
D42*
X171164000Y-69646000D03*
X170664000Y-69646000D03*
D43*
X170164002Y-68896002D03*
D40*
X170013999Y-69420999D03*
X170013999Y-69871001D03*
D44*
X170164002Y-70346001D03*
D18*
X148937500Y-73000000D03*
X152062500Y-73000000D03*
D14*
X126200000Y-104600000D03*
X126200000Y-106600000D03*
D45*
X119406000Y-77216000D03*
X116306000Y-77216000D03*
D46*
X166650000Y-72390000D03*
X163350000Y-72390000D03*
D47*
X157010500Y-87630000D03*
X153885500Y-87630000D03*
D30*
X175482000Y-66040000D03*
X173482000Y-66040000D03*
D48*
X122450000Y-96437500D03*
X121800000Y-96437500D03*
X121150000Y-96437500D03*
X120500000Y-96437500D03*
X119850000Y-96437500D03*
X119200000Y-96437500D03*
X118550000Y-96437500D03*
X118550000Y-102162500D03*
X119200000Y-102162500D03*
X119850000Y-102162500D03*
X120500000Y-102162500D03*
X121150000Y-102162500D03*
X121800000Y-102162500D03*
X122450000Y-102162500D03*
D18*
X148937500Y-69500000D03*
X152062500Y-69500000D03*
D25*
X179600000Y-74800000D03*
X179600000Y-72800000D03*
D24*
X123800000Y-106637500D03*
X123800000Y-104562500D03*
D32*
X114200000Y-97300000D03*
X114200000Y-100900000D03*
D49*
X136912000Y-97418000D03*
D50*
X137667000Y-92793000D03*
X140717000Y-92793000D03*
D51*
X139192000Y-91118000D03*
D50*
X137667000Y-89443000D03*
X140717000Y-89443000D03*
D49*
X141472000Y-97418000D03*
D52*
X158004000Y-102616000D03*
X160004000Y-102616000D03*
D30*
X176800000Y-91000000D03*
X174800000Y-91000000D03*
D23*
X166701500Y-66746000D03*
X164626500Y-66746000D03*
D46*
X176656000Y-100076000D03*
X173356000Y-100076000D03*
D52*
X125365000Y-90932000D03*
X127365000Y-90932000D03*
D30*
X143900000Y-101900000D03*
X141900000Y-101900000D03*
D21*
X181000000Y-100500000D03*
D53*
X131876800Y-84352200D03*
X134416800Y-84352200D03*
X136956800Y-84352200D03*
X139496800Y-84352200D03*
X142036800Y-84352200D03*
X144576800Y-84352200D03*
X144576800Y-62052200D03*
X142036800Y-62052200D03*
X139496800Y-62052200D03*
X136956800Y-62052200D03*
X134416800Y-62052200D03*
X131876800Y-62052200D03*
D18*
X148937500Y-76500000D03*
X152062500Y-76500000D03*
D24*
X127100000Y-100337500D03*
X127100000Y-98262500D03*
D16*
X165500000Y-83562500D03*
X165500000Y-85637500D03*
D27*
X124888000Y-72009000D03*
X114888000Y-72009000D03*
D30*
X166164000Y-69646000D03*
X164164000Y-69646000D03*
D54*
X182549000Y-59436000D03*
X178099000Y-59436000D03*
D21*
X186200000Y-91800000D03*
D37*
X125650000Y-79600000D03*
X122550000Y-79600000D03*
D55*
X150687999Y-101366000D03*
X150687999Y-101866002D03*
X150687999Y-102366000D03*
X150687999Y-102866000D03*
X150687999Y-103366001D03*
X150687999Y-103866000D03*
X152587998Y-103866000D03*
X152587998Y-103366001D03*
X152587998Y-102866000D03*
X152587998Y-102366000D03*
X152587998Y-101866002D03*
X152587998Y-101366000D03*
D56*
X151637997Y-101600000D03*
X151637997Y-102616000D03*
X151637997Y-103632000D03*
D57*
X151638000Y-102616000D03*
D15*
X145012500Y-58166000D03*
X147087500Y-58166000D03*
X126470500Y-88265000D03*
X128545500Y-88265000D03*
D52*
X183400000Y-81900000D03*
X185400000Y-81900000D03*
D14*
X171400000Y-76900000D03*
X171400000Y-78900000D03*
D25*
X171704000Y-96250000D03*
X171704000Y-94250000D03*
D52*
X164084000Y-60706000D03*
X166084000Y-60706000D03*
D30*
X155178000Y-107442000D03*
X153178000Y-107442000D03*
D15*
X169026500Y-64346000D03*
X171101500Y-64346000D03*
D30*
X121650000Y-91948000D03*
X119650000Y-91948000D03*
D14*
X120777000Y-87011000D03*
X120777000Y-89011000D03*
D20*
X118866500Y-82484000D03*
X118866500Y-81534000D03*
X118866500Y-80584000D03*
X116591500Y-80584000D03*
X116591500Y-82484000D03*
D58*
X189500000Y-66875000D03*
X186500000Y-66875000D03*
X186500000Y-72125000D03*
X189500000Y-72125000D03*
D59*
X112000000Y-61000000D03*
X115000000Y-58000000D03*
D60*
X129794000Y-83312000D03*
D59*
X169000000Y-112000000D03*
X145000000Y-55750000D03*
D60*
X128524000Y-83312000D03*
D59*
X151000000Y-112000000D03*
X150000000Y-60000000D03*
D60*
X127254000Y-84582000D03*
X138600000Y-102300000D03*
X163600000Y-102800000D03*
D59*
X194000000Y-103100000D03*
X194000000Y-82500000D03*
D60*
X182923800Y-67704600D03*
D59*
X147000000Y-55750000D03*
X194000000Y-85500000D03*
X178600000Y-90900000D03*
D60*
X128524000Y-84582000D03*
X128727200Y-102362000D03*
D59*
X129000000Y-112000000D03*
X153000000Y-112000000D03*
X113000000Y-60000000D03*
X182700000Y-92900000D03*
X151000000Y-55750000D03*
X181000000Y-112000000D03*
D60*
X128524000Y-85852000D03*
D59*
X164000000Y-55750000D03*
X157000000Y-55750000D03*
X121000000Y-55750000D03*
X109000000Y-86500000D03*
X125000000Y-55750000D03*
X189500000Y-108000000D03*
X116000000Y-57000000D03*
X174064000Y-55746000D03*
X194000000Y-93000000D03*
X150200000Y-66500000D03*
X121000000Y-112000000D03*
X153000000Y-55750000D03*
D60*
X181857000Y-67704600D03*
D59*
X194000000Y-75000000D03*
X109000000Y-82000000D03*
X109000000Y-70000000D03*
D60*
X153670000Y-93345000D03*
D59*
X111000000Y-62000000D03*
D60*
X171800000Y-102800000D03*
D59*
X186500000Y-111000000D03*
X170300000Y-91900000D03*
X109000000Y-73000000D03*
X150200000Y-65400000D03*
X109000000Y-94000000D03*
D60*
X170400000Y-102800000D03*
D59*
X191000000Y-106500000D03*
X109000000Y-95500000D03*
X194000000Y-66000000D03*
X172064000Y-55746000D03*
X194000000Y-94500000D03*
X194000000Y-72000000D03*
X141000000Y-55750000D03*
X109000000Y-79000000D03*
X109000000Y-74500000D03*
X117000000Y-110000000D03*
D60*
X167800000Y-106800000D03*
D59*
X111000000Y-104000000D03*
D60*
X179491600Y-69057800D03*
D59*
X155000000Y-112000000D03*
D60*
X144900000Y-100400000D03*
D59*
X112000000Y-105000000D03*
X123000000Y-112000000D03*
X185000000Y-112000000D03*
D60*
X127254000Y-85852000D03*
D59*
X150200000Y-75900000D03*
X156000000Y-60000000D03*
X109000000Y-89500000D03*
X137000000Y-55750000D03*
X131000000Y-112000000D03*
D60*
X145200000Y-103600000D03*
D59*
X151500000Y-60000000D03*
X155000000Y-55750000D03*
X176064000Y-55746000D03*
X194000000Y-76500000D03*
X194000000Y-88500000D03*
D60*
X181907800Y-69000000D03*
D59*
X170250000Y-55750000D03*
D60*
X165400000Y-106800000D03*
X129794000Y-85852000D03*
D59*
X157000000Y-112000000D03*
X193400000Y-63900000D03*
X109000000Y-100000000D03*
X114000000Y-107000000D03*
X194000000Y-90000000D03*
X114000000Y-59000000D03*
D60*
X152400000Y-93345000D03*
D59*
X183000000Y-112000000D03*
X109000000Y-67000000D03*
X194000000Y-70500000D03*
X135000000Y-112000000D03*
X194000000Y-73500000D03*
X109000000Y-76000000D03*
X109000000Y-97000000D03*
X194000000Y-97500000D03*
D60*
X141200000Y-103600000D03*
D59*
X109000000Y-88000000D03*
X159000000Y-112000000D03*
X109000000Y-68500000D03*
X188250000Y-58750000D03*
X173000000Y-112000000D03*
X189300000Y-60000000D03*
X192500000Y-105000000D03*
X109000000Y-83500000D03*
X110000000Y-103000000D03*
X109000000Y-71500000D03*
X127000000Y-112000000D03*
X188000000Y-109500000D03*
X182064000Y-55746000D03*
D60*
X162560000Y-104902000D03*
D59*
X147000000Y-112000000D03*
X116000000Y-109000000D03*
D60*
X153670000Y-95885000D03*
D59*
X194000000Y-78000000D03*
D60*
X170400000Y-106700000D03*
D59*
X165000000Y-112000000D03*
X109000000Y-98500000D03*
D60*
X152400000Y-94615000D03*
D59*
X109000000Y-91000000D03*
X194000000Y-67500000D03*
D60*
X153670000Y-97155000D03*
D59*
X167000000Y-112000000D03*
X150200000Y-70100000D03*
X150200000Y-72500000D03*
X123000000Y-55750000D03*
D60*
X125984000Y-85852000D03*
X143300000Y-103600000D03*
D59*
X110000000Y-63000000D03*
X154500000Y-60000000D03*
X109000000Y-77500000D03*
X147000000Y-60000000D03*
X192000000Y-62600000D03*
X139000000Y-112000000D03*
D60*
X125984000Y-83312000D03*
X153670000Y-94615000D03*
D59*
X185750000Y-56250000D03*
D60*
X180688600Y-68949200D03*
D59*
X117000000Y-56000000D03*
X139000000Y-55750000D03*
D60*
X123063000Y-77089000D03*
D59*
X129000000Y-55750000D03*
X178064000Y-55746000D03*
X109000000Y-92500000D03*
X119000000Y-112000000D03*
X190600000Y-61200000D03*
D60*
X180688600Y-66333000D03*
D59*
X145000000Y-112000000D03*
X194000000Y-79500000D03*
X168000000Y-55750000D03*
X194000000Y-81000000D03*
D60*
X152400000Y-95885000D03*
D59*
X150200000Y-73600000D03*
X143000000Y-112000000D03*
D60*
X116586000Y-89662000D03*
D59*
X177400000Y-76200000D03*
X194000000Y-69000000D03*
X109000000Y-64000000D03*
X119000000Y-55750000D03*
D60*
X137100000Y-100800000D03*
D59*
X109000000Y-65500000D03*
X179000000Y-112000000D03*
X177000000Y-112000000D03*
X180064000Y-55746000D03*
X194000000Y-100900000D03*
X135000000Y-55750000D03*
D60*
X165300000Y-102800000D03*
D59*
X161000000Y-112000000D03*
D60*
X151130000Y-93345000D03*
D59*
X194000000Y-91500000D03*
X109000000Y-80500000D03*
X194000000Y-84000000D03*
D60*
X151130000Y-97155000D03*
D59*
X133000000Y-112000000D03*
D60*
X179494800Y-66358400D03*
D59*
X175000000Y-112000000D03*
X150200000Y-77000000D03*
X118000000Y-111000000D03*
X153000000Y-60000000D03*
D60*
X163600000Y-106800000D03*
D59*
X137000000Y-112000000D03*
D60*
X181857000Y-66333000D03*
X129794000Y-84582000D03*
D59*
X143000000Y-55750000D03*
D60*
X147574000Y-103632000D03*
X171900000Y-106700000D03*
D59*
X162000000Y-55750000D03*
X187000000Y-57500000D03*
X125000000Y-112000000D03*
X131000000Y-55750000D03*
X127000000Y-55750000D03*
D60*
X127254000Y-83312000D03*
D59*
X150200000Y-69000000D03*
X109000000Y-102000000D03*
X184064000Y-55746000D03*
D60*
X140600000Y-100400000D03*
X164100000Y-64900000D03*
D59*
X166000000Y-55750000D03*
D60*
X142741291Y-100400000D03*
X125984000Y-84582000D03*
D59*
X149000000Y-112000000D03*
X149000000Y-55750000D03*
D60*
X179596400Y-67730000D03*
X180688600Y-67730000D03*
D59*
X194000000Y-96000000D03*
X141000000Y-112000000D03*
D60*
X182923800Y-66333000D03*
D59*
X163000000Y-112000000D03*
X148500000Y-60000000D03*
X109000000Y-85000000D03*
D60*
X183000000Y-69000000D03*
X152400000Y-97155000D03*
D59*
X194000000Y-99000000D03*
D60*
X138900000Y-99700000D03*
D59*
X133000000Y-55750000D03*
X159000000Y-55750000D03*
X115000000Y-108000000D03*
X171000000Y-112000000D03*
X194000000Y-87000000D03*
X113000000Y-106000000D03*
X168900000Y-97400000D03*
X170400000Y-84200000D03*
D60*
X121562500Y-75334500D03*
X118491000Y-84963000D03*
X115951000Y-84582000D03*
X120650000Y-79629000D03*
D59*
X172900000Y-81700000D03*
X175800000Y-89200000D03*
D60*
X117703600Y-104698800D03*
D59*
X178400000Y-81800000D03*
X170300000Y-80800000D03*
D60*
X130251200Y-99568000D03*
X128701800Y-95123000D03*
D59*
X185300000Y-83600000D03*
D60*
X123698000Y-86360000D03*
X120700000Y-94000000D03*
X123698000Y-93726000D03*
X155930600Y-105460800D03*
X117900000Y-94200000D03*
X173600000Y-71800000D03*
X162300000Y-69000000D03*
X173700000Y-76800000D03*
X165100000Y-73100000D03*
X111760000Y-78740000D03*
X111760000Y-77470000D03*
X111760000Y-76200000D03*
X113030000Y-77470000D03*
X114300000Y-77470000D03*
X113030000Y-78740000D03*
X114300000Y-78740000D03*
X114300000Y-76200000D03*
X113030000Y-76200000D03*
X166100000Y-65000000D03*
X174300000Y-70500000D03*
D61*
X171101500Y-64346000D02*
X173410000Y-64346000D01*
D62*
X150140000Y-95224000D02*
X150140000Y-95250000D01*
D63*
X155800000Y-58420000D02*
X152017500Y-58420000D01*
D62*
X168384000Y-85637500D02*
X168656000Y-85365500D01*
X150687999Y-102866000D02*
X148340000Y-102866000D01*
X164500000Y-90000000D02*
X165500000Y-89000000D01*
X121800000Y-102162500D02*
X121150000Y-102162500D01*
D63*
X160041500Y-107442000D02*
X160041500Y-107420500D01*
D62*
X186300000Y-99200000D02*
X186100000Y-99000000D01*
X165500000Y-89000000D02*
X165500000Y-85637500D01*
D61*
X123800000Y-104562500D02*
X122900000Y-104562500D01*
X179491600Y-66361600D02*
X179494800Y-66358400D01*
X127100000Y-100337500D02*
X127100000Y-100734800D01*
D62*
X165500000Y-85637500D02*
X168384000Y-85637500D01*
X148340000Y-102866000D02*
X147574000Y-103632000D01*
X175601500Y-74146000D02*
X175601500Y-76301500D01*
D63*
X155426500Y-96520000D02*
X155426500Y-93726000D01*
D62*
X176400000Y-77100000D02*
X176450000Y-77150000D01*
D63*
X179350000Y-66213600D02*
X179494800Y-66358400D01*
D64*
X151871997Y-103866000D02*
X151637997Y-103632000D01*
D62*
X175601500Y-76301500D02*
X176400000Y-77100000D01*
X122550000Y-79600000D02*
X122550000Y-77602000D01*
D61*
X173464000Y-61846000D02*
X174982400Y-61846000D01*
D62*
X176400000Y-77100000D02*
X176400000Y-78737500D01*
D61*
X173410000Y-64346000D02*
X173464000Y-64400000D01*
D63*
X179350000Y-64000000D02*
X179350000Y-66213600D01*
D61*
X127100000Y-100734800D02*
X128727200Y-102362000D01*
D65*
X164164000Y-69646000D02*
X164164000Y-68636000D01*
X164164000Y-68636000D02*
X164626500Y-68173500D01*
D62*
X168720999Y-69420999D02*
X167473500Y-68173500D01*
X187301500Y-95750000D02*
X186550000Y-95750000D01*
X162800000Y-85600000D02*
X165462500Y-85600000D01*
X150140000Y-95250000D02*
X150368000Y-95250000D01*
X168148000Y-104252000D02*
X167400000Y-105000000D01*
D63*
X146812000Y-105642500D02*
X146812000Y-104394000D01*
D62*
X120500000Y-102162500D02*
X121150000Y-102162500D01*
X186550000Y-95750000D02*
X186100000Y-96200000D01*
X167110500Y-92610500D02*
X164500000Y-90000000D01*
D61*
X122900000Y-104562500D02*
X121150000Y-102812500D01*
D62*
X176575000Y-90775000D02*
X176800000Y-91000000D01*
X165462500Y-85600000D02*
X165500000Y-85637500D01*
D63*
X160004000Y-102616000D02*
X160054800Y-102666800D01*
D65*
X164626500Y-66746000D02*
X164626500Y-65426500D01*
D61*
X113437000Y-91948000D02*
X111887000Y-93498000D01*
D62*
X187296000Y-100196000D02*
X186300000Y-99200000D01*
D61*
X115243700Y-91948000D02*
X115243700Y-91004300D01*
D62*
X178500000Y-91000000D02*
X178600000Y-90900000D01*
D63*
X147087500Y-58166000D02*
X151728500Y-58166000D01*
D62*
X176400000Y-78737500D02*
X176337500Y-78800000D01*
D61*
X121150000Y-102162500D02*
X121150000Y-100850000D01*
X183000000Y-69000000D02*
X183000000Y-66409200D01*
X117500000Y-100300000D02*
X116900000Y-100900000D01*
D63*
X162560000Y-103733600D02*
X162560000Y-104902000D01*
X151728500Y-58166000D02*
X152000000Y-58437500D01*
D62*
X122550000Y-77602000D02*
X123063000Y-77089000D01*
X170300000Y-105000000D02*
X167400000Y-105000000D01*
X168148000Y-102092000D02*
X168148000Y-104252000D01*
D65*
X164626500Y-68173500D02*
X164626500Y-66746000D01*
D61*
X173464000Y-64400000D02*
X173464000Y-66022000D01*
X116900000Y-100900000D02*
X114200000Y-100900000D01*
D62*
X168400000Y-90000000D02*
X170300000Y-91900000D01*
X178000000Y-78700000D02*
X179462500Y-78700000D01*
D66*
X128545500Y-89751500D02*
X128545500Y-88265000D01*
D62*
X164500000Y-90000000D02*
X168400000Y-90000000D01*
D61*
X111887000Y-98587000D02*
X111887000Y-93498000D01*
D63*
X161493200Y-102666800D02*
X162560000Y-103733600D01*
X160041500Y-107420500D02*
X162560000Y-104902000D01*
D61*
X121150000Y-102812500D02*
X121150000Y-102162500D01*
X183000000Y-66409200D02*
X182923800Y-66333000D01*
D65*
X164164000Y-70936000D02*
X164164000Y-69646000D01*
D62*
X176575000Y-87100000D02*
X176575000Y-90775000D01*
X131876800Y-84352200D02*
X132000000Y-84229000D01*
D61*
X120600000Y-100300000D02*
X117500000Y-100300000D01*
D63*
X160004000Y-104864500D02*
X160041500Y-104902000D01*
D61*
X182942200Y-69057800D02*
X183000000Y-69000000D01*
D62*
X176800000Y-91000000D02*
X178500000Y-91000000D01*
X167400000Y-105000000D02*
X162658000Y-105000000D01*
X162658000Y-105000000D02*
X162560000Y-104902000D01*
D65*
X164626500Y-65426500D02*
X164100000Y-64900000D01*
D62*
X167473500Y-68173500D02*
X164626500Y-68173500D01*
D66*
X127365000Y-90932000D02*
X128545500Y-89751500D01*
D63*
X160041500Y-104902000D02*
X162560000Y-104902000D01*
D61*
X179491600Y-69057800D02*
X182942200Y-69057800D01*
X174982400Y-61846000D02*
X179494800Y-66358400D01*
D63*
X160054800Y-102666800D02*
X161493200Y-102666800D01*
D65*
X163350000Y-71750000D02*
X164164000Y-70936000D01*
D66*
X164084000Y-64884000D02*
X164100000Y-64900000D01*
D63*
X146812000Y-104394000D02*
X147574000Y-103632000D01*
D61*
X179491600Y-69057800D02*
X179491600Y-66361600D01*
X179520200Y-66333000D02*
X179494800Y-66358400D01*
D66*
X164084000Y-62992000D02*
X164084000Y-64884000D01*
D65*
X163350000Y-72390000D02*
X163350000Y-71750000D01*
D62*
X182800000Y-92900000D02*
X182700000Y-92900000D01*
X170013999Y-69420999D02*
X168720999Y-69420999D01*
X171800000Y-103500000D02*
X170300000Y-105000000D01*
D61*
X173464000Y-66022000D02*
X173482000Y-66040000D01*
X114200000Y-100900000D02*
X111887000Y-98587000D01*
D64*
X152587998Y-103866000D02*
X151871997Y-103866000D01*
D61*
X182923800Y-66333000D02*
X179520200Y-66333000D01*
D63*
X150368000Y-95478000D02*
X150140000Y-95250000D01*
D62*
X187301500Y-100196000D02*
X187296000Y-100196000D01*
D61*
X123837500Y-104600000D02*
X123800000Y-104562500D01*
D63*
X160274000Y-102346000D02*
X160004000Y-102616000D01*
X152017500Y-58420000D02*
X152000000Y-58437500D01*
D62*
X174000000Y-103500000D02*
X171800000Y-103500000D01*
D61*
X128438000Y-102362000D02*
X126200000Y-104600000D01*
D62*
X186100000Y-96200000D02*
X182800000Y-92900000D01*
X167110500Y-94234000D02*
X167110500Y-92610500D01*
D61*
X128727200Y-102362000D02*
X128438000Y-102362000D01*
X115243700Y-91004300D02*
X116586000Y-89662000D01*
X173464000Y-61846000D02*
X173464000Y-64400000D01*
D62*
X186100000Y-99000000D02*
X186100000Y-96200000D01*
D61*
X121150000Y-100850000D02*
X120600000Y-100300000D01*
X126200000Y-104600000D02*
X123837500Y-104600000D01*
D67*
X183753400Y-66875000D02*
X182923800Y-67704600D01*
X186500000Y-66875000D02*
X183753400Y-66875000D01*
D62*
X176450000Y-77150000D02*
X178000000Y-78700000D01*
D61*
X115243700Y-91948000D02*
X113437000Y-91948000D01*
D62*
X176450000Y-77150000D02*
X177400000Y-76200000D01*
D67*
X159652651Y-74000000D02*
X159652651Y-75700000D01*
X139496800Y-62052200D02*
X136956800Y-62052200D01*
D61*
X156998000Y-90932000D02*
X157501500Y-91435500D01*
D67*
X151510300Y-62052200D02*
X152000000Y-61562500D01*
D63*
X168148000Y-75948000D02*
X167900000Y-75700000D01*
D67*
X157752200Y-62052200D02*
X151510300Y-62052200D01*
D65*
X156324400Y-100622000D02*
X151007000Y-100622000D01*
D67*
X152062500Y-66000000D02*
X152062500Y-69500000D01*
D62*
X176700000Y-71700000D02*
X175972500Y-71700000D01*
D65*
X157501500Y-99444900D02*
X156362400Y-100584000D01*
D62*
X150687999Y-101366000D02*
X150687999Y-100991001D01*
D65*
X151007000Y-100622000D02*
X150687999Y-100941001D01*
D67*
X159652651Y-79347349D02*
X157000000Y-82000000D01*
X152062500Y-76500000D02*
X152062500Y-73000000D01*
X159652651Y-75700000D02*
X159652651Y-79347349D01*
D62*
X164240000Y-98060000D02*
X161544000Y-98060000D01*
D61*
X156998000Y-87642500D02*
X157010500Y-87630000D01*
D67*
X159652651Y-63952651D02*
X157752200Y-62052200D01*
X144576800Y-62052200D02*
X151510300Y-62052200D01*
D62*
X166050000Y-96250000D02*
X164240000Y-98060000D01*
D61*
X145012500Y-58166000D02*
X145012500Y-61616500D01*
D63*
X170664000Y-72936000D02*
X167900000Y-75700000D01*
D62*
X151095000Y-100584000D02*
X156362400Y-100584000D01*
D67*
X152062500Y-62604400D02*
X151510300Y-62052200D01*
D61*
X158501500Y-98060000D02*
X161544000Y-98060000D01*
D63*
X171874000Y-74146000D02*
X170664000Y-72936000D01*
X167900000Y-75700000D02*
X159652651Y-75700000D01*
D67*
X159652651Y-65000000D02*
X159652651Y-63952651D01*
D61*
X157501500Y-99060000D02*
X158501500Y-98060000D01*
D65*
X150687999Y-100941001D02*
X150687999Y-101341002D01*
D62*
X174926500Y-96296000D02*
X171750000Y-96296000D01*
D66*
X164084000Y-79248000D02*
X159752000Y-79248000D01*
D67*
X152062500Y-66000000D02*
X152062500Y-62604400D01*
D61*
X160200000Y-58420000D02*
X160200000Y-59604400D01*
D62*
X170664000Y-69646000D02*
X170664000Y-72936000D01*
X150687999Y-100991001D02*
X151095000Y-100584000D01*
D67*
X157000000Y-87619500D02*
X157010500Y-87630000D01*
D61*
X157501500Y-97282000D02*
X157501500Y-96520000D01*
X160200000Y-59604400D02*
X157752200Y-62052200D01*
X157501500Y-91435500D02*
X157501500Y-92608400D01*
X157501500Y-99060000D02*
X157501500Y-97282000D01*
D67*
X159652651Y-65000000D02*
X159652651Y-74000000D01*
D61*
X157501500Y-96520000D02*
X157501500Y-93726000D01*
D67*
X152062500Y-69500000D02*
X152062500Y-73000000D01*
D62*
X175972500Y-71700000D02*
X173526500Y-74146000D01*
D67*
X157000000Y-82000000D02*
X157000000Y-87619500D01*
X142036800Y-62052200D02*
X144576800Y-62052200D01*
D65*
X156362400Y-100584000D02*
X156324400Y-100622000D01*
D61*
X157501500Y-92608400D02*
X157501500Y-93726000D01*
D62*
X171704000Y-96250000D02*
X166050000Y-96250000D01*
D67*
X142036800Y-62052200D02*
X139496800Y-62052200D01*
D62*
X171750000Y-96296000D02*
X171704000Y-96250000D01*
D63*
X168148000Y-77232000D02*
X168148000Y-75948000D01*
X173526500Y-74146000D02*
X171874000Y-74146000D01*
D65*
X157501500Y-99060000D02*
X157501500Y-99444900D01*
D61*
X156998000Y-90932000D02*
X156998000Y-87642500D01*
X145012500Y-61616500D02*
X144576800Y-62052200D01*
D66*
X159752000Y-79248000D02*
X159652651Y-79347349D01*
D65*
X130744000Y-98262500D02*
X127100000Y-98262500D01*
X114200000Y-97300000D02*
X116800000Y-97300000D01*
X120500000Y-96437500D02*
X120500000Y-98162500D01*
X120500000Y-98162500D02*
X120400000Y-98262500D01*
D62*
X170942000Y-99076000D02*
X170576000Y-99076000D01*
D65*
X174625000Y-80875000D02*
X175000000Y-80500000D01*
X188970000Y-80700000D02*
X187730000Y-79460000D01*
D63*
X181537500Y-78700000D02*
X182297500Y-79460000D01*
D65*
X183026000Y-109474000D02*
X191500000Y-101000000D01*
X175000000Y-80500000D02*
X180800000Y-80500000D01*
X130744000Y-98262500D02*
X141955500Y-109474000D01*
X169246500Y-82700000D02*
X168656000Y-83290500D01*
X160782000Y-109474000D02*
X141955500Y-109474000D01*
D62*
X170400000Y-84200000D02*
X170400000Y-82700000D01*
D65*
X174625000Y-82700000D02*
X174625000Y-80875000D01*
D63*
X182297500Y-79460000D02*
X187730000Y-79460000D01*
D65*
X190900000Y-80700000D02*
X188970000Y-80700000D01*
X127100000Y-98262500D02*
X120400000Y-98262500D01*
X191500000Y-81300000D02*
X190900000Y-80700000D01*
X191500000Y-101000000D02*
X191500000Y-81300000D01*
X170400000Y-82700000D02*
X169246500Y-82700000D01*
X120400000Y-98262500D02*
X117762500Y-98262500D01*
X174625000Y-82700000D02*
X170400000Y-82700000D01*
D62*
X179600000Y-74800000D02*
X181537500Y-76737500D01*
X181537500Y-76737500D02*
X181537500Y-78700000D01*
D65*
X117762500Y-98262500D02*
X116800000Y-97300000D01*
X180800000Y-80500000D02*
X181537500Y-79762500D01*
X181537500Y-79762500D02*
X181537500Y-78700000D01*
X160782000Y-109474000D02*
X183026000Y-109474000D01*
D62*
X170576000Y-99076000D02*
X168900000Y-97400000D01*
D63*
X120777000Y-87011000D02*
X122317000Y-87011000D01*
D65*
X119507000Y-60452000D02*
X121879000Y-60452000D01*
D63*
X123571000Y-88265000D02*
X126470500Y-88265000D01*
D65*
X118855000Y-59800000D02*
X119507000Y-60452000D01*
D66*
X126470500Y-88265000D02*
X126415000Y-88320500D01*
D63*
X116591500Y-82484000D02*
X116591500Y-83063500D01*
D64*
X118110000Y-77851000D02*
X118745000Y-77216000D01*
D63*
X114493000Y-82484000D02*
X114361000Y-82616000D01*
X116591500Y-82484000D02*
X114493000Y-82484000D01*
X116591500Y-83063500D02*
X118491000Y-84963000D01*
D66*
X126415000Y-88320500D02*
X126415000Y-93157000D01*
D63*
X115824000Y-87630000D02*
X118491000Y-84963000D01*
D61*
X119406000Y-77216000D02*
X119681000Y-77216000D01*
X121879000Y-60452000D02*
X121879000Y-62991000D01*
D63*
X114973500Y-87630000D02*
X115824000Y-87630000D01*
D64*
X118866500Y-80584000D02*
X118866500Y-79750500D01*
X118745000Y-77216000D02*
X119406000Y-77216000D01*
D61*
X119681000Y-77216000D02*
X121562500Y-75334500D01*
D65*
X118100000Y-59800000D02*
X118855000Y-59800000D01*
D61*
X121879000Y-62991000D02*
X124888000Y-66000000D01*
D66*
X126415000Y-93157000D02*
X126492000Y-93234000D01*
D63*
X122317000Y-87011000D02*
X123571000Y-88265000D01*
D61*
X124888000Y-66000000D02*
X124888000Y-72009000D01*
D64*
X118110000Y-78994000D02*
X118110000Y-77851000D01*
D61*
X124888000Y-72009000D02*
X121562500Y-75334500D01*
D63*
X114361000Y-82616000D02*
X111838500Y-82616000D01*
D64*
X118866500Y-79750500D02*
X118110000Y-78994000D01*
D63*
X118729000Y-84963000D02*
X120777000Y-87011000D01*
X118491000Y-84963000D02*
X118729000Y-84963000D01*
D62*
X148611500Y-100859500D02*
X149618002Y-101866002D01*
X149618002Y-101866002D02*
X150687999Y-101866002D01*
X148082000Y-100859500D02*
X148611500Y-100859500D01*
X146812000Y-107717500D02*
X146217500Y-107717500D01*
X147028500Y-107934000D02*
X146812000Y-107717500D01*
X146217500Y-107717500D02*
X144000000Y-105500000D01*
X149352000Y-107934000D02*
X147028500Y-107934000D01*
X155930500Y-102866000D02*
X152587998Y-102866000D01*
X157966500Y-104902000D02*
X155930500Y-102866000D01*
X155178000Y-107442000D02*
X157966500Y-107442000D01*
D66*
X170154000Y-68946000D02*
X169446000Y-68946000D01*
X170164002Y-68896002D02*
X170164002Y-68935998D01*
X167246000Y-66746000D02*
X166701500Y-66746000D01*
X170164002Y-68935998D02*
X170154000Y-68946000D01*
X169446000Y-68946000D02*
X167246000Y-66746000D01*
D62*
X120650000Y-81292500D02*
X120408500Y-81534000D01*
X111838500Y-87620000D02*
X111848500Y-87630000D01*
X120650000Y-80137000D02*
X120650000Y-81292500D01*
X111838500Y-84516000D02*
X111838500Y-87620000D01*
X120269000Y-81534000D02*
X120408500Y-81534000D01*
X111848500Y-90359500D02*
X111887000Y-90398000D01*
X115885000Y-84516000D02*
X115951000Y-84582000D01*
X111838500Y-84516000D02*
X115885000Y-84516000D01*
X120408500Y-81534000D02*
X121617500Y-82743000D01*
X120650000Y-79629000D02*
X120650000Y-80137000D01*
X111848500Y-87630000D02*
X111848500Y-90359500D01*
X118866500Y-81534000D02*
X120269000Y-81534000D01*
D68*
X130505200Y-62052200D02*
X128905000Y-60452000D01*
X131876800Y-62052200D02*
X130505200Y-62052200D01*
X128905000Y-60452000D02*
X126279000Y-60452000D01*
D62*
X168116000Y-100060000D02*
X168148000Y-100092000D01*
X157480000Y-100330000D02*
X161274000Y-100330000D01*
X152587998Y-101366000D02*
X156444000Y-101366000D01*
X161274000Y-100330000D02*
X161544000Y-100060000D01*
X156444000Y-101366000D02*
X157480000Y-100330000D01*
X173356000Y-100076000D02*
X168164000Y-100076000D01*
X161544000Y-100060000D02*
X168116000Y-100060000D01*
X168164000Y-100076000D02*
X168148000Y-100092000D01*
X175000000Y-102700000D02*
X173376000Y-101076000D01*
X175500000Y-104700000D02*
X175000000Y-104200000D01*
X189050000Y-102050000D02*
X186400000Y-104700000D01*
X156959998Y-101866002D02*
X157480000Y-101346000D01*
X157750000Y-101076000D02*
X170942000Y-101076000D01*
X175000000Y-104200000D02*
X175000000Y-102700000D01*
X186400000Y-104700000D02*
X175500000Y-104700000D01*
X189050000Y-83220000D02*
X189050000Y-102050000D01*
X152587998Y-101866002D02*
X156959998Y-101866002D01*
X190270000Y-82000000D02*
X189050000Y-83220000D01*
X173376000Y-101076000D02*
X170942000Y-101076000D01*
X157480000Y-101346000D02*
X157750000Y-101076000D01*
D67*
X189500000Y-74500000D02*
X189500000Y-72125000D01*
X190270000Y-75270000D02*
X189500000Y-74500000D01*
X190270000Y-76920000D02*
X190270000Y-75270000D01*
D62*
X171400000Y-78900000D02*
X172662500Y-80162500D01*
X175925000Y-89075000D02*
X175800000Y-89200000D01*
X172662500Y-80162500D02*
X172900000Y-80162500D01*
X172900000Y-81700000D02*
X172900000Y-80162500D01*
X175925000Y-87100000D02*
X175925000Y-89075000D01*
X172900000Y-80162500D02*
X174262500Y-78800000D01*
D67*
X186500000Y-75690000D02*
X187730000Y-76920000D01*
X186500000Y-72125000D02*
X186500000Y-75690000D01*
D62*
X118550000Y-102162500D02*
X118550000Y-103852400D01*
X118550000Y-102162500D02*
X119200000Y-102162500D01*
X118550000Y-103852400D02*
X117703600Y-104698800D01*
X175925000Y-82700000D02*
X175925000Y-83675000D01*
X175925000Y-83675000D02*
X176790000Y-84540000D01*
X175275000Y-82700000D02*
X175925000Y-82700000D01*
X176790000Y-84540000D02*
X187730000Y-84540000D01*
D67*
X150622000Y-86192000D02*
X147828000Y-86192000D01*
X136956800Y-84352200D02*
X139496800Y-84352200D01*
X142036800Y-84352200D02*
X144576800Y-84352200D01*
X139192000Y-84657000D02*
X139496800Y-84352200D01*
X144576800Y-84352200D02*
X146416600Y-86192000D01*
X139496800Y-84352200D02*
X142036800Y-84352200D01*
D62*
X140207000Y-89443000D02*
X140207000Y-92793000D01*
D67*
X139192000Y-91118000D02*
X139192000Y-84657000D01*
X146416600Y-86192000D02*
X147828000Y-86192000D01*
D62*
X138666800Y-91643200D02*
X139192000Y-91118000D01*
D63*
X132588000Y-94234000D02*
X135178800Y-91643200D01*
X135178800Y-91643200D02*
X138666800Y-91643200D01*
D61*
X146136000Y-90592000D02*
X146050000Y-90678000D01*
X152273000Y-90932000D02*
X153898000Y-90932000D01*
X153898000Y-90932000D02*
X153898000Y-87642500D01*
X150622000Y-90592000D02*
X151933000Y-90592000D01*
X153898000Y-87642500D02*
X153885500Y-87630000D01*
X150622000Y-90592000D02*
X146136000Y-90592000D01*
X151933000Y-90592000D02*
X152273000Y-90932000D01*
D62*
X168200000Y-80800000D02*
X168148000Y-80852000D01*
X165500000Y-83562500D02*
X162837500Y-83562500D01*
X168148000Y-80852000D02*
X168148000Y-79232000D01*
X165500000Y-83500000D02*
X168148000Y-80852000D01*
X162837500Y-83562500D02*
X162800000Y-83600000D01*
X165500000Y-83562500D02*
X165500000Y-83500000D01*
X177500000Y-82700000D02*
X178400000Y-81800000D01*
X170300000Y-80800000D02*
X168200000Y-80800000D01*
X176575000Y-82700000D02*
X177500000Y-82700000D01*
X119850000Y-94050000D02*
X119850000Y-96437500D01*
X117318700Y-91948000D02*
X119650000Y-91948000D01*
X119650000Y-93850000D02*
X119850000Y-94050000D01*
X119650000Y-91948000D02*
X119650000Y-93850000D01*
X119850000Y-102162500D02*
X119850000Y-104550000D01*
X128590800Y-95234000D02*
X128701800Y-95123000D01*
X126200000Y-106600000D02*
X127562600Y-106600000D01*
X130251200Y-103911400D02*
X130251200Y-99568000D01*
X126492000Y-95234000D02*
X128590800Y-95234000D01*
X121900000Y-106600000D02*
X123762500Y-106600000D01*
X123837500Y-106600000D02*
X123800000Y-106637500D01*
X126200000Y-106600000D02*
X123837500Y-106600000D01*
X119850000Y-104550000D02*
X121900000Y-106600000D01*
X127562600Y-106600000D02*
X130251200Y-103911400D01*
X123762500Y-106600000D02*
X123800000Y-106637500D01*
X185400000Y-81900000D02*
X187630000Y-81900000D01*
X187630000Y-81900000D02*
X187730000Y-82000000D01*
X136912000Y-99212000D02*
X136912000Y-97418000D01*
X139600000Y-101900000D02*
X136912000Y-99212000D01*
X141900000Y-101900000D02*
X139600000Y-101900000D01*
X188600000Y-94200000D02*
X186200000Y-91800000D01*
X183400000Y-83100000D02*
X183900000Y-83600000D01*
X183900000Y-83600000D02*
X185300000Y-83600000D01*
X187301500Y-97650000D02*
X187850000Y-97650000D01*
X188600000Y-96900000D02*
X188600000Y-94200000D01*
X183400000Y-81900000D02*
X183400000Y-83100000D01*
X187850000Y-97650000D02*
X188600000Y-96900000D01*
X123698000Y-83773500D02*
X123698000Y-86360000D01*
X125650000Y-80250000D02*
X125650000Y-79600000D01*
X120700000Y-94000000D02*
X121150000Y-94450000D01*
X121150000Y-94450000D02*
X121150000Y-96437500D01*
X123617500Y-82282500D02*
X125650000Y-80250000D01*
X123617500Y-83693000D02*
X123698000Y-83773500D01*
X123617500Y-83693000D02*
X123617500Y-82282500D01*
D66*
X171663998Y-68896002D02*
X171713996Y-68946000D01*
D62*
X175482000Y-68482000D02*
X175482000Y-68318000D01*
D66*
X175482000Y-68318000D02*
X175482000Y-66040000D01*
X171713996Y-68946000D02*
X174854000Y-68946000D01*
X174854000Y-68946000D02*
X175482000Y-68318000D01*
D62*
X176700000Y-69700000D02*
X175482000Y-68482000D01*
X155930600Y-105460800D02*
X153835801Y-103366001D01*
X122412000Y-89011000D02*
X120777000Y-89011000D01*
X125365000Y-92059000D02*
X125365000Y-90932000D01*
X124333000Y-90932000D02*
X122412000Y-89011000D01*
X125365000Y-90932000D02*
X124333000Y-90932000D01*
X153835801Y-103366001D02*
X152587998Y-103366001D01*
X123698000Y-93726000D02*
X125365000Y-92059000D01*
X146266000Y-102366000D02*
X145800000Y-101900000D01*
X145800000Y-101900000D02*
X143900000Y-101900000D01*
X150687999Y-102366000D02*
X146266000Y-102366000D01*
X149617999Y-103366001D02*
X149352000Y-103632000D01*
X149352000Y-103632000D02*
X149352000Y-105934000D01*
X150687999Y-103366001D02*
X149617999Y-103366001D01*
X157754000Y-102366000D02*
X152587998Y-102366000D01*
X158004000Y-102616000D02*
X157754000Y-102366000D01*
X150687999Y-104951999D02*
X150687999Y-103866000D01*
X153178000Y-107442000D02*
X150687999Y-104951999D01*
X118550000Y-96437500D02*
X119200000Y-96437500D01*
X118550000Y-96437500D02*
X117900000Y-95787500D01*
X117900000Y-95787500D02*
X117900000Y-94200000D01*
X179600000Y-72800000D02*
X177500000Y-70700000D01*
X175525305Y-70700000D02*
X174246304Y-69420999D01*
X177500000Y-70700000D02*
X175525305Y-70700000D01*
X174246304Y-69420999D02*
X171814001Y-69420999D01*
X185580000Y-87080000D02*
X187730000Y-87080000D01*
X174625000Y-87100000D02*
X174625000Y-86125000D01*
X175350000Y-85400000D02*
X183900000Y-85400000D01*
X172800000Y-87100000D02*
X174625000Y-87100000D01*
X174625000Y-86125000D02*
X175350000Y-85400000D01*
X183900000Y-85400000D02*
X185580000Y-87080000D01*
X171900000Y-88000000D02*
X172800000Y-87100000D01*
D65*
X165534000Y-58166000D02*
X164084000Y-59616000D01*
D66*
X162300000Y-69000000D02*
X162300000Y-61800000D01*
X172146001Y-70346001D02*
X173600000Y-71800000D01*
D65*
X167640000Y-58166000D02*
X165534000Y-58166000D01*
D66*
X163394000Y-60706000D02*
X164084000Y-60706000D01*
D65*
X164084000Y-59616000D02*
X164084000Y-60706000D01*
D66*
X171664001Y-70346001D02*
X172146001Y-70346001D01*
X162300000Y-61800000D02*
X163394000Y-60706000D01*
D62*
X166164000Y-69646000D02*
X166650000Y-70132000D01*
X166389001Y-69871001D02*
X170013999Y-69871001D01*
X166650000Y-72390000D02*
X165810000Y-72390000D01*
X173700000Y-76800000D02*
X171500000Y-76800000D01*
X171500000Y-76800000D02*
X171400000Y-76900000D01*
X166164000Y-69646000D02*
X166389001Y-69871001D01*
X166650000Y-70132000D02*
X166650000Y-72390000D01*
X165810000Y-72390000D02*
X165100000Y-73100000D01*
D64*
X117475000Y-77851000D02*
X116840000Y-77216000D01*
X116591500Y-80004500D02*
X117475000Y-79121000D01*
X116840000Y-77216000D02*
X116306000Y-77216000D01*
X117475000Y-79121000D02*
X117475000Y-77851000D01*
D61*
X113284000Y-77216000D02*
X113030000Y-77470000D01*
D64*
X116591500Y-80584000D02*
X116591500Y-80004500D01*
D61*
X116306000Y-77216000D02*
X113284000Y-77216000D01*
D67*
X178099000Y-59436000D02*
X176836000Y-59436000D01*
D61*
X169026500Y-64346000D02*
X169026500Y-61473500D01*
X169640000Y-60740000D02*
X169640000Y-58166000D01*
X169700000Y-60800000D02*
X169640000Y-60740000D01*
X169026500Y-61473500D02*
X169700000Y-60800000D01*
D67*
X173464000Y-58246000D02*
X169720000Y-58246000D01*
D62*
X171164000Y-68164000D02*
X169026500Y-66026500D01*
X169026500Y-66026500D02*
X169026500Y-64346000D01*
X171164000Y-69646000D02*
X171164000Y-68164000D01*
D67*
X176836000Y-59436000D02*
X175646000Y-58246000D01*
X169720000Y-58246000D02*
X169640000Y-58166000D01*
X175646000Y-58246000D02*
X173464000Y-58246000D01*
D62*
X171688000Y-94234000D02*
X171704000Y-94250000D01*
X174926500Y-94396000D02*
X171850000Y-94396000D01*
X169185500Y-94234000D02*
X171688000Y-94234000D01*
X171850000Y-94396000D02*
X171704000Y-94250000D01*
X134800000Y-96700000D02*
X135800000Y-95700000D01*
X135800000Y-95700000D02*
X139754000Y-95700000D01*
X134800000Y-99900000D02*
X134800000Y-96700000D01*
X142000000Y-105500000D02*
X140400000Y-105500000D01*
D67*
X145770600Y-95250000D02*
X143602600Y-97418000D01*
X147040000Y-95250000D02*
X145770600Y-95250000D01*
D62*
X140400000Y-105500000D02*
X134800000Y-99900000D01*
D67*
X143602600Y-97418000D02*
X141472000Y-97418000D01*
D62*
X139754000Y-95700000D02*
X141472000Y-97418000D01*
X178146000Y-95346000D02*
X178558000Y-95758000D01*
X177201500Y-95346000D02*
X178146000Y-95346000D01*
X178558000Y-95758000D02*
X179848000Y-95758000D01*
X118866500Y-82484000D02*
X119822000Y-82484000D01*
X120523000Y-84455000D02*
X120711000Y-84643000D01*
X120523000Y-83185000D02*
X120523000Y-84455000D01*
X119822000Y-82484000D02*
X120523000Y-83185000D01*
X120711000Y-84643000D02*
X121617500Y-84643000D01*
X176000000Y-103500000D02*
X176000000Y-101700000D01*
X184404000Y-102096000D02*
X183000000Y-103500000D01*
X175400000Y-101100000D02*
X175400000Y-98900000D01*
X187301500Y-102096000D02*
X184404000Y-102096000D01*
X175400000Y-98900000D02*
X176700000Y-97600000D01*
X183000000Y-103500000D02*
X176000000Y-103500000D01*
X176000000Y-101700000D02*
X175400000Y-101100000D01*
X180900000Y-97600000D02*
X181848000Y-96652000D01*
X181848000Y-96652000D02*
X181848000Y-95758000D01*
X176700000Y-97600000D02*
X180900000Y-97600000D01*
X171814001Y-69871001D02*
X173671001Y-69871001D01*
D65*
X166084000Y-60706000D02*
X166084000Y-62992000D01*
D62*
X166084000Y-64984000D02*
X166084000Y-62992000D01*
X173671001Y-69871001D02*
X174300000Y-70500000D01*
X166100000Y-65000000D02*
X166084000Y-64984000D01*
X174800000Y-89000000D02*
X174800000Y-91000000D01*
X175275000Y-88525000D02*
X174800000Y-89000000D01*
X172900000Y-91000000D02*
X174800000Y-91000000D01*
X171900000Y-90000000D02*
X172900000Y-91000000D01*
X175275000Y-87100000D02*
X175275000Y-88525000D01*
X121800000Y-96437500D02*
X122450000Y-96437500D01*
X121800000Y-92098000D02*
X121800000Y-96437500D01*
X121650000Y-91948000D02*
X121800000Y-92098000D01*
D67*
X189500000Y-64600000D02*
X184336000Y-59436000D01*
X189500000Y-66875000D02*
X189500000Y-64600000D01*
D63*
X182650000Y-59537000D02*
X182549000Y-59436000D01*
X182650000Y-64000000D02*
X182650000Y-59537000D01*
D67*
X184336000Y-59436000D02*
X182549000Y-59436000D01*
D62*
X178100000Y-100500000D02*
X181000000Y-100500000D01*
X185026500Y-101146000D02*
X185026500Y-96700000D01*
X176656000Y-100076000D02*
X177676000Y-100076000D01*
X177676000Y-100076000D02*
X178100000Y-100500000D01*
X182746000Y-101146000D02*
X182100000Y-100500000D01*
X182100000Y-100500000D02*
X181000000Y-100500000D01*
X185026500Y-101146000D02*
X182746000Y-101146000D01*
G04 #@! TA.AperFunction,Conductor*
G36*
X169315677Y-84719685D02*
G01*
X169336319Y-84736319D01*
X170663681Y-86063681D01*
X170697166Y-86125004D01*
X170700000Y-86151362D01*
X170700000Y-92048638D01*
X170680315Y-92115677D01*
X170663681Y-92136319D01*
X169836319Y-92963681D01*
X169774996Y-92997166D01*
X169748638Y-93000000D01*
X168599999Y-93000000D01*
X167736319Y-93863681D01*
X167674996Y-93897166D01*
X167648638Y-93900000D01*
X162551362Y-93900000D01*
X162484323Y-93880315D01*
X162463681Y-93863681D01*
X161836319Y-93236319D01*
X161802834Y-93174996D01*
X161800000Y-93148638D01*
X161800000Y-85351361D01*
X161819685Y-85284322D01*
X161836314Y-85263685D01*
X162163681Y-84936318D01*
X162225004Y-84902834D01*
X162251362Y-84900000D01*
X168000000Y-84900000D01*
X168163681Y-84736318D01*
X168225004Y-84702834D01*
X168251362Y-84700000D01*
X169248638Y-84700000D01*
X169315677Y-84719685D01*
G37*
G04 #@! TD.AperFunction*
G04 #@! TA.AperFunction,Conductor*
G36*
X131208183Y-58184907D02*
G01*
X131219996Y-58194996D01*
X132940004Y-59915004D01*
X132967781Y-59969521D01*
X132969000Y-59985008D01*
X132968999Y-63331992D01*
X132950092Y-63390183D01*
X132940003Y-63401996D01*
X131854996Y-64487004D01*
X131800479Y-64514781D01*
X131784992Y-64516000D01*
X127803008Y-64516000D01*
X127744817Y-64497093D01*
X127733004Y-64487004D01*
X124869996Y-61623996D01*
X124842219Y-61569479D01*
X124841000Y-61553992D01*
X124841000Y-59477008D01*
X124859907Y-59418817D01*
X124869996Y-59407004D01*
X126082004Y-58194996D01*
X126136521Y-58167219D01*
X126152008Y-58166000D01*
X131149992Y-58166000D01*
X131208183Y-58184907D01*
G37*
G04 #@! TD.AperFunction*
G04 #@! TA.AperFunction,Conductor*
G36*
X169517177Y-101621185D02*
G01*
X169537819Y-101637819D01*
X170000000Y-102100000D01*
X173348638Y-102100000D01*
X173415677Y-102119685D01*
X173436319Y-102136319D01*
X174163681Y-102863681D01*
X174197166Y-102925004D01*
X174200000Y-102951362D01*
X174200000Y-108048637D01*
X174180315Y-108115676D01*
X174163681Y-108136318D01*
X173462819Y-108837181D01*
X173401496Y-108870666D01*
X173375138Y-108873500D01*
X159624862Y-108873500D01*
X159557823Y-108853815D01*
X159537181Y-108837181D01*
X159136319Y-108436319D01*
X159102834Y-108374996D01*
X159100000Y-108348638D01*
X159100000Y-102251362D01*
X159119685Y-102184323D01*
X159136319Y-102163681D01*
X159662181Y-101637819D01*
X159723504Y-101604334D01*
X159749862Y-101601500D01*
X169450138Y-101601500D01*
X169517177Y-101621185D01*
G37*
G04 #@! TD.AperFunction*
G04 #@! TA.AperFunction,Conductor*
G36*
X176315677Y-73419685D02*
G01*
X176336319Y-73436319D01*
X180263681Y-77363681D01*
X180297166Y-77425004D01*
X180300000Y-77451362D01*
X180300000Y-79148638D01*
X180280315Y-79215677D01*
X180263681Y-79236319D01*
X179936319Y-79563681D01*
X179874996Y-79597166D01*
X179848638Y-79600000D01*
X175751362Y-79600000D01*
X175684323Y-79580315D01*
X175663681Y-79563681D01*
X175436318Y-79336318D01*
X175402833Y-79274995D01*
X175400000Y-79248646D01*
X175400000Y-73524000D01*
X175419685Y-73456961D01*
X175472489Y-73411206D01*
X175524000Y-73400000D01*
X176248638Y-73400000D01*
X176315677Y-73419685D01*
G37*
G04 #@! TD.AperFunction*
G04 #@! TA.AperFunction,Conductor*
G36*
X184015677Y-57519685D02*
G01*
X184036319Y-57536319D01*
X190463682Y-63963682D01*
X190497166Y-64025003D01*
X190500000Y-64051361D01*
X190500000Y-68248637D01*
X190480315Y-68315676D01*
X190463681Y-68336318D01*
X190236319Y-68563681D01*
X190174996Y-68597166D01*
X190148638Y-68600000D01*
X188851362Y-68600000D01*
X188784323Y-68580315D01*
X188763681Y-68563681D01*
X188236319Y-68036319D01*
X188202834Y-67974996D01*
X188200000Y-67948638D01*
X188200000Y-65400000D01*
X184900000Y-62100000D01*
X182151362Y-62100000D01*
X182084323Y-62080315D01*
X182063681Y-62063681D01*
X180936319Y-60936318D01*
X180902834Y-60874995D01*
X180900000Y-60848637D01*
X180900000Y-58651361D01*
X180919685Y-58584322D01*
X180936314Y-58563685D01*
X181963681Y-57536319D01*
X182025004Y-57502834D01*
X182051362Y-57500000D01*
X183948638Y-57500000D01*
X184015677Y-57519685D01*
G37*
G04 #@! TD.AperFunction*
G04 #@! TA.AperFunction,Conductor*
G36*
X122318183Y-58819907D02*
G01*
X122329996Y-58829996D01*
X123034004Y-59534004D01*
X123061781Y-59588521D01*
X123063000Y-59604008D01*
X123063000Y-62103000D01*
X126336005Y-65376005D01*
X126363781Y-65430520D01*
X126365000Y-65446007D01*
X126364999Y-72094992D01*
X126346092Y-72153183D01*
X126336003Y-72164996D01*
X119943996Y-78557004D01*
X119889479Y-78584781D01*
X119873992Y-78586000D01*
X118798000Y-78586000D01*
X118739809Y-78567093D01*
X118703845Y-78517593D01*
X118699000Y-78487000D01*
X118699000Y-75398003D01*
X118717906Y-75339816D01*
X118727983Y-75328016D01*
X122174000Y-71882000D01*
X122174000Y-66802000D01*
X119662995Y-64290995D01*
X119635219Y-64236479D01*
X119634000Y-64220992D01*
X119634000Y-59985007D01*
X119652907Y-59926816D01*
X119662990Y-59915009D01*
X120748004Y-58829996D01*
X120802521Y-58802219D01*
X120818008Y-58801000D01*
X122259992Y-58801000D01*
X122318183Y-58819907D01*
G37*
G04 #@! TD.AperFunction*
G04 #@! TA.AperFunction,Conductor*
G36*
X147591183Y-93490907D02*
G01*
X147602996Y-93500996D01*
X147926004Y-93824004D01*
X147953781Y-93878521D01*
X147955000Y-93894008D01*
X147955000Y-96097992D01*
X147936093Y-96156183D01*
X147926004Y-96167996D01*
X147475996Y-96618004D01*
X147421479Y-96645781D01*
X147405992Y-96647000D01*
X146939000Y-96647000D01*
X145227473Y-98358527D01*
X144320496Y-99265504D01*
X144265979Y-99293281D01*
X144250492Y-99294500D01*
X140508972Y-99294500D01*
X140450781Y-99275593D01*
X140438968Y-99265504D01*
X139601996Y-98428531D01*
X139574219Y-98374014D01*
X139573000Y-98358527D01*
X139573000Y-96053008D01*
X139591907Y-95994817D01*
X139601996Y-95983004D01*
X140433004Y-95151996D01*
X140487521Y-95124219D01*
X140503008Y-95123000D01*
X142112999Y-95123000D01*
X142113000Y-95123000D01*
X143735004Y-93500996D01*
X143789521Y-93473219D01*
X143805008Y-93472000D01*
X147532992Y-93472000D01*
X147591183Y-93490907D01*
G37*
G04 #@! TD.AperFunction*
G04 #@! TA.AperFunction,Conductor*
G36*
X148139938Y-82140906D02*
G01*
X148198121Y-82159837D01*
X148209901Y-82169902D01*
X151736005Y-85696005D01*
X151763781Y-85750520D01*
X151765000Y-85766007D01*
X151765000Y-86826992D01*
X151746093Y-86885183D01*
X151736004Y-86896996D01*
X150269996Y-88363004D01*
X150215479Y-88390781D01*
X150199992Y-88392000D01*
X144653000Y-88392000D01*
X143891000Y-89154000D01*
X143891000Y-89154001D01*
X143891000Y-92414992D01*
X143872093Y-92473183D01*
X143862004Y-92484996D01*
X141887996Y-94459004D01*
X141833479Y-94486781D01*
X141817992Y-94488000D01*
X136312008Y-94488000D01*
X136253817Y-94469093D01*
X136242004Y-94459004D01*
X135283996Y-93500996D01*
X135256219Y-93446479D01*
X135255000Y-93430992D01*
X135255000Y-87417007D01*
X135273907Y-87358816D01*
X135283990Y-87347009D01*
X136017000Y-86614000D01*
X136017000Y-82717636D01*
X136035907Y-82659446D01*
X136045550Y-82648083D01*
X136521849Y-82165653D01*
X136576187Y-82137527D01*
X136592328Y-82136207D01*
X148139938Y-82140906D01*
G37*
G04 #@! TD.AperFunction*
G04 #@! TA.AperFunction,Conductor*
G36*
X116222183Y-75329907D02*
G01*
X116233996Y-75339996D01*
X116430004Y-75536004D01*
X116457781Y-75590521D01*
X116459000Y-75606008D01*
X116459000Y-78444991D01*
X116440093Y-78503182D01*
X116430004Y-78514995D01*
X115471996Y-79473004D01*
X115417479Y-79500781D01*
X115401992Y-79502000D01*
X111293008Y-79502000D01*
X111234817Y-79483093D01*
X111223004Y-79473004D01*
X111026996Y-79276996D01*
X110999219Y-79222479D01*
X110998000Y-79206992D01*
X110998000Y-75860007D01*
X111016907Y-75801816D01*
X111026997Y-75790003D01*
X111477005Y-75339996D01*
X111531521Y-75312219D01*
X111547008Y-75311000D01*
X116163992Y-75311000D01*
X116222183Y-75329907D01*
G37*
G04 #@! TD.AperFunction*
G04 #@! TA.AperFunction,Conductor*
G36*
X176415677Y-57319685D02*
G01*
X176436319Y-57336319D01*
X176800000Y-57700000D01*
X178776000Y-57700000D01*
X178843039Y-57719685D01*
X178888794Y-57772489D01*
X178900000Y-57824000D01*
X178900000Y-60948638D01*
X178880315Y-61015677D01*
X178863681Y-61036319D01*
X178436319Y-61463681D01*
X178374996Y-61497166D01*
X178348638Y-61500000D01*
X177351362Y-61500000D01*
X177284323Y-61480315D01*
X177263681Y-61463681D01*
X175900000Y-60100000D01*
X172200000Y-60100000D01*
X172199999Y-60100000D01*
X170100000Y-62199999D01*
X170100000Y-62200000D01*
X170100000Y-65200000D01*
X171863682Y-66963682D01*
X171897166Y-67025003D01*
X171900000Y-67051361D01*
X171900000Y-67848638D01*
X171880315Y-67915677D01*
X171863681Y-67936319D01*
X171645727Y-68154273D01*
X171584404Y-68187758D01*
X171569994Y-68189307D01*
X171570062Y-68189995D01*
X171564005Y-68190591D01*
X171514470Y-68200443D01*
X171466265Y-68210032D01*
X171439002Y-68228248D01*
X171383403Y-68265396D01*
X171333397Y-68315401D01*
X171276264Y-68400904D01*
X171222652Y-68445708D01*
X171153327Y-68454415D01*
X171090300Y-68424260D01*
X171053581Y-68364816D01*
X171051545Y-68356199D01*
X171049966Y-68348261D01*
X171049966Y-68348260D01*
X171049632Y-68347760D01*
X170994601Y-68265399D01*
X170911740Y-68210034D01*
X170911739Y-68210033D01*
X170911735Y-68210032D01*
X170838677Y-68195500D01*
X170838674Y-68195500D01*
X170746862Y-68195500D01*
X170679823Y-68175815D01*
X170659181Y-68159181D01*
X167336319Y-64836319D01*
X167302834Y-64774996D01*
X167300000Y-64748638D01*
X167300000Y-60751362D01*
X167319685Y-60684323D01*
X167336319Y-60663681D01*
X167900000Y-60100000D01*
X168640000Y-59360000D01*
X168640000Y-58011362D01*
X168659685Y-57944323D01*
X168676319Y-57923681D01*
X169263681Y-57336319D01*
X169325004Y-57302834D01*
X169351362Y-57300000D01*
X176348638Y-57300000D01*
X176415677Y-57319685D01*
G37*
G04 #@! TD.AperFunction*
G04 #@! TA.AperFunction,Conductor*
G36*
X157900000Y-55300000D02*
G01*
X157900000Y-56800000D01*
X157900000Y-58848638D01*
X157880315Y-58915677D01*
X157863681Y-58936319D01*
X156441819Y-60358181D01*
X156380496Y-60391666D01*
X156354138Y-60394500D01*
X146545862Y-60394500D01*
X146478823Y-60374815D01*
X146458181Y-60358181D01*
X146236319Y-60136318D01*
X146202834Y-60074995D01*
X146200000Y-60048637D01*
X146200000Y-56800000D01*
X146200000Y-55200000D01*
X146299500Y-55100500D01*
X157700500Y-55100500D01*
X157900000Y-55300000D01*
G37*
G04 #@! TD.AperFunction*
G04 #@! TA.AperFunction,Conductor*
G36*
X155715677Y-92419685D02*
G01*
X155736319Y-92436319D01*
X156058181Y-92758181D01*
X156091666Y-92819504D01*
X156094500Y-92845862D01*
X156094500Y-99259499D01*
X156095663Y-99281189D01*
X156095664Y-99281196D01*
X156099644Y-99318216D01*
X156100000Y-99324850D01*
X156100000Y-99548638D01*
X156080315Y-99615677D01*
X156063681Y-99636319D01*
X155936319Y-99763681D01*
X155874996Y-99797166D01*
X155848638Y-99800000D01*
X149000000Y-99800000D01*
X149000000Y-99000000D01*
X148000000Y-98000000D01*
X146300000Y-98000000D01*
X147163681Y-97136318D01*
X147225004Y-97102834D01*
X147251362Y-97100000D01*
X148000000Y-97100000D01*
X148600000Y-96500000D01*
X148600000Y-93251361D01*
X148619685Y-93184322D01*
X148636314Y-93163685D01*
X149363681Y-92436318D01*
X149425004Y-92402834D01*
X149451362Y-92400000D01*
X155648638Y-92400000D01*
X155715677Y-92419685D01*
G37*
G04 #@! TD.AperFunction*
G04 #@! TA.AperFunction,Conductor*
G36*
X135854539Y-97419685D02*
G01*
X135900294Y-97472489D01*
X135911500Y-97524000D01*
X135911500Y-98333696D01*
X135914401Y-98370567D01*
X135914402Y-98370573D01*
X135960254Y-98528393D01*
X135960255Y-98528396D01*
X135960256Y-98528398D01*
X135982104Y-98565341D01*
X136043917Y-98669862D01*
X136043923Y-98669870D01*
X136160129Y-98786076D01*
X136160133Y-98786079D01*
X136160135Y-98786081D01*
X136160138Y-98786082D01*
X136160137Y-98786082D01*
X136301600Y-98869743D01*
X136308764Y-98872843D01*
X136307729Y-98875233D01*
X136355957Y-98906013D01*
X136385182Y-98969477D01*
X136386500Y-98987510D01*
X136386500Y-99203016D01*
X136384340Y-99266250D01*
X136394308Y-99307153D01*
X136395494Y-99313394D01*
X136401228Y-99355109D01*
X136407864Y-99370387D01*
X136414602Y-99390424D01*
X136418542Y-99406593D01*
X136418543Y-99406594D01*
X136439175Y-99443289D01*
X136442000Y-99448977D01*
X136458782Y-99487611D01*
X136469283Y-99500518D01*
X136481183Y-99518001D01*
X136489342Y-99532512D01*
X136519115Y-99562285D01*
X136523372Y-99567002D01*
X136549946Y-99599665D01*
X136563544Y-99609264D01*
X136579715Y-99622885D01*
X139222059Y-102265228D01*
X139265245Y-102311469D01*
X139301222Y-102333346D01*
X139306466Y-102336915D01*
X139340025Y-102362364D01*
X139355510Y-102368470D01*
X139374447Y-102377876D01*
X139388669Y-102386525D01*
X139388671Y-102386525D01*
X139388672Y-102386526D01*
X139429216Y-102397885D01*
X139435220Y-102399903D01*
X139474411Y-102415359D01*
X139480067Y-102415940D01*
X139490968Y-102417061D01*
X139511746Y-102421009D01*
X139527772Y-102425500D01*
X139569880Y-102425500D01*
X139576221Y-102425824D01*
X139618110Y-102430131D01*
X139634514Y-102427302D01*
X139655580Y-102425500D01*
X140801436Y-102425500D01*
X140868475Y-102445185D01*
X140914230Y-102497989D01*
X140920512Y-102514905D01*
X140948254Y-102610393D01*
X140948255Y-102610396D01*
X141031917Y-102751862D01*
X141031923Y-102751870D01*
X141148129Y-102868076D01*
X141148133Y-102868079D01*
X141148135Y-102868081D01*
X141289602Y-102951744D01*
X141331224Y-102963836D01*
X141447426Y-102997597D01*
X141447429Y-102997597D01*
X141447431Y-102997598D01*
X141459722Y-102998565D01*
X141484304Y-103000500D01*
X141484306Y-103000500D01*
X142315696Y-103000500D01*
X142334131Y-102999049D01*
X142352569Y-102997598D01*
X142352571Y-102997597D01*
X142352573Y-102997597D01*
X142394191Y-102985505D01*
X142510398Y-102951744D01*
X142651865Y-102868081D01*
X142768081Y-102751865D01*
X142793267Y-102709276D01*
X142844337Y-102661593D01*
X142913078Y-102649089D01*
X142977668Y-102675734D01*
X143006732Y-102709276D01*
X143031917Y-102751862D01*
X143031923Y-102751870D01*
X143148129Y-102868076D01*
X143148133Y-102868079D01*
X143148135Y-102868081D01*
X143289602Y-102951744D01*
X143331224Y-102963836D01*
X143447426Y-102997597D01*
X143447429Y-102997597D01*
X143447431Y-102997598D01*
X143459722Y-102998565D01*
X143484304Y-103000500D01*
X143484306Y-103000500D01*
X144315696Y-103000500D01*
X144334131Y-102999049D01*
X144352569Y-102997598D01*
X144352571Y-102997597D01*
X144352573Y-102997597D01*
X144394191Y-102985505D01*
X144510398Y-102951744D01*
X144651865Y-102868081D01*
X144768081Y-102751865D01*
X144851744Y-102610398D01*
X144879488Y-102514905D01*
X144917094Y-102456019D01*
X144980567Y-102426813D01*
X144998564Y-102425500D01*
X145530968Y-102425500D01*
X145598007Y-102445185D01*
X145618649Y-102461819D01*
X145888060Y-102731229D01*
X145931245Y-102777469D01*
X145967232Y-102799352D01*
X145972464Y-102802914D01*
X146006025Y-102828365D01*
X146021525Y-102834477D01*
X146040453Y-102843879D01*
X146054672Y-102852526D01*
X146095213Y-102863885D01*
X146101224Y-102865907D01*
X146106740Y-102868082D01*
X146140411Y-102881360D01*
X146145314Y-102881864D01*
X146156975Y-102883063D01*
X146177749Y-102887011D01*
X146188953Y-102890150D01*
X146193772Y-102891500D01*
X146235870Y-102891500D01*
X146242211Y-102891824D01*
X146284110Y-102896132D01*
X146294068Y-102894415D01*
X146300519Y-102893303D01*
X146321587Y-102891500D01*
X148876000Y-102891500D01*
X148943039Y-102911185D01*
X148988794Y-102963989D01*
X149000000Y-103015500D01*
X149000000Y-103048638D01*
X148980315Y-103115677D01*
X148963681Y-103136319D01*
X148036319Y-104063681D01*
X147974996Y-104097166D01*
X147948638Y-104100000D01*
X139851362Y-104100000D01*
X139784323Y-104080315D01*
X139763681Y-104063681D01*
X135361819Y-99661819D01*
X135328334Y-99600496D01*
X135325500Y-99574138D01*
X135325500Y-97782035D01*
X135345185Y-97714996D01*
X135353234Y-97703875D01*
X135562781Y-97445832D01*
X135620324Y-97406199D01*
X135659041Y-97400000D01*
X135787500Y-97400000D01*
X135854539Y-97419685D01*
G37*
G04 #@! TD.AperFunction*
G04 #@! TA.AperFunction,Conductor*
G36*
X138117703Y-97518149D02*
G01*
X138124181Y-97524181D01*
X140000000Y-99400000D01*
X140300000Y-99700000D01*
X144600000Y-99700000D01*
X146300000Y-98000000D01*
X148000000Y-98000000D01*
X149000000Y-99000000D01*
X149000000Y-99800000D01*
X149000000Y-99810851D01*
X148980315Y-99877890D01*
X148927511Y-99923645D01*
X148858353Y-99933589D01*
X148825175Y-99921915D01*
X148824554Y-99923353D01*
X148817393Y-99920254D01*
X148659573Y-99874402D01*
X148659567Y-99874401D01*
X148622696Y-99871500D01*
X148622694Y-99871500D01*
X147541306Y-99871500D01*
X147541304Y-99871500D01*
X147504432Y-99874401D01*
X147504426Y-99874402D01*
X147346606Y-99920254D01*
X147346603Y-99920255D01*
X147205137Y-100003917D01*
X147205129Y-100003923D01*
X147088923Y-100120129D01*
X147088917Y-100120137D01*
X147005255Y-100261603D01*
X147005254Y-100261606D01*
X146959402Y-100419426D01*
X146959401Y-100419432D01*
X146956500Y-100456304D01*
X146956500Y-101262696D01*
X146959401Y-101299567D01*
X146959402Y-101299573D01*
X147005254Y-101457393D01*
X147005255Y-101457396D01*
X147088917Y-101598862D01*
X147088923Y-101598870D01*
X147118872Y-101628819D01*
X147152357Y-101690142D01*
X147147373Y-101759834D01*
X147105501Y-101815767D01*
X147040037Y-101840184D01*
X147031191Y-101840500D01*
X146535031Y-101840500D01*
X146467992Y-101820815D01*
X146447350Y-101804181D01*
X146177941Y-101534771D01*
X146158293Y-101513734D01*
X146134755Y-101488531D01*
X146134752Y-101488529D01*
X146134751Y-101488528D01*
X146098775Y-101466651D01*
X146093529Y-101463081D01*
X146078462Y-101451655D01*
X146059976Y-101437636D01*
X146051406Y-101434256D01*
X146044485Y-101431527D01*
X146025553Y-101422124D01*
X146011329Y-101413474D01*
X145970785Y-101402113D01*
X145964766Y-101400089D01*
X145931025Y-101386784D01*
X145925589Y-101384641D01*
X145925585Y-101384640D01*
X145925583Y-101384640D01*
X145909022Y-101382937D01*
X145888255Y-101378990D01*
X145872231Y-101374500D01*
X145872228Y-101374500D01*
X145830120Y-101374500D01*
X145823778Y-101374175D01*
X145805853Y-101372332D01*
X145781892Y-101369869D01*
X145781888Y-101369869D01*
X145772576Y-101371474D01*
X145765485Y-101372697D01*
X145744420Y-101374500D01*
X144998564Y-101374500D01*
X144931525Y-101354815D01*
X144885770Y-101302011D01*
X144879488Y-101285095D01*
X144851745Y-101189606D01*
X144851744Y-101189603D01*
X144851744Y-101189602D01*
X144768081Y-101048135D01*
X144768079Y-101048133D01*
X144768076Y-101048129D01*
X144651870Y-100931923D01*
X144651862Y-100931917D01*
X144510396Y-100848255D01*
X144510393Y-100848254D01*
X144352573Y-100802402D01*
X144352567Y-100802401D01*
X144315696Y-100799500D01*
X144315694Y-100799500D01*
X143484306Y-100799500D01*
X143484304Y-100799500D01*
X143447432Y-100802401D01*
X143447426Y-100802402D01*
X143289606Y-100848254D01*
X143289603Y-100848255D01*
X143148137Y-100931917D01*
X143148129Y-100931923D01*
X143031923Y-101048129D01*
X143031919Y-101048135D01*
X143006732Y-101090724D01*
X142955662Y-101138407D01*
X142886921Y-101150910D01*
X142822331Y-101124264D01*
X142793268Y-101090724D01*
X142792272Y-101089040D01*
X142768081Y-101048135D01*
X142768078Y-101048132D01*
X142768076Y-101048129D01*
X142651870Y-100931923D01*
X142651862Y-100931917D01*
X142510396Y-100848255D01*
X142510393Y-100848254D01*
X142352573Y-100802402D01*
X142352567Y-100802401D01*
X142315696Y-100799500D01*
X142315694Y-100799500D01*
X141484306Y-100799500D01*
X141484304Y-100799500D01*
X141447432Y-100802401D01*
X141447426Y-100802402D01*
X141289606Y-100848254D01*
X141289603Y-100848255D01*
X141148137Y-100931917D01*
X141148129Y-100931923D01*
X141031923Y-101048129D01*
X141031917Y-101048137D01*
X140948255Y-101189603D01*
X140948254Y-101189606D01*
X140920512Y-101285095D01*
X140882906Y-101343981D01*
X140819433Y-101373187D01*
X140801436Y-101374500D01*
X139869031Y-101374500D01*
X139801992Y-101354815D01*
X139781350Y-101338181D01*
X137503799Y-99060630D01*
X137470314Y-98999307D01*
X137475298Y-98929615D01*
X137517170Y-98873682D01*
X137528332Y-98866234D01*
X137663865Y-98786081D01*
X137780081Y-98669865D01*
X137863744Y-98528398D01*
X137909598Y-98370569D01*
X137912500Y-98333694D01*
X137912500Y-97611861D01*
X137932185Y-97544823D01*
X137984989Y-97499068D01*
X138054147Y-97489124D01*
X138117703Y-97518149D01*
G37*
G04 #@! TD.AperFunction*
G04 #@! TA.AperFunction,Conductor*
G36*
X150637539Y-64325185D02*
G01*
X150683294Y-64377989D01*
X150694500Y-64429500D01*
X150694500Y-64999999D01*
X150694500Y-73999999D01*
X150694500Y-77759499D01*
X150695663Y-77781189D01*
X150695664Y-77781196D01*
X150699658Y-77818345D01*
X150704299Y-77849837D01*
X150704301Y-77849842D01*
X150746935Y-77969332D01*
X150780420Y-78030655D01*
X150780423Y-78030659D01*
X150782543Y-78034541D01*
X150781645Y-78035031D01*
X150800000Y-78097518D01*
X150800000Y-78200000D01*
X153463681Y-80863681D01*
X153497166Y-80925004D01*
X153500000Y-80951362D01*
X153500000Y-84173656D01*
X153480315Y-84240695D01*
X153427511Y-84286450D01*
X153373678Y-84297634D01*
X151206107Y-84257045D01*
X151139448Y-84236109D01*
X151120748Y-84220748D01*
X147436319Y-80536319D01*
X147402834Y-80474996D01*
X147400000Y-80448638D01*
X147400000Y-65051362D01*
X147419685Y-64984323D01*
X147436319Y-64963681D01*
X148058181Y-64341819D01*
X148119504Y-64308334D01*
X148145862Y-64305500D01*
X150570500Y-64305500D01*
X150637539Y-64325185D01*
G37*
G04 #@! TD.AperFunction*
G04 #@! TA.AperFunction,Conductor*
G36*
X132734239Y-82569685D02*
G01*
X132779994Y-82622489D01*
X132791200Y-82674000D01*
X132791200Y-82702400D01*
X132907281Y-82818481D01*
X132940766Y-82879804D01*
X132943600Y-82906162D01*
X132943600Y-86867437D01*
X132923915Y-86934476D01*
X132907281Y-86955118D01*
X130643119Y-89219281D01*
X130581796Y-89252766D01*
X130555438Y-89255600D01*
X127914962Y-89255600D01*
X127847923Y-89235915D01*
X127827281Y-89219281D01*
X127442719Y-88834719D01*
X127409234Y-88773396D01*
X127406400Y-88747038D01*
X127406400Y-87477600D01*
X127152400Y-87223600D01*
X125984562Y-87223600D01*
X125917523Y-87203915D01*
X125896881Y-87187281D01*
X124699519Y-85989919D01*
X124666034Y-85928596D01*
X124663200Y-85902238D01*
X124663200Y-83058562D01*
X124682885Y-82991523D01*
X124699519Y-82970881D01*
X125084081Y-82586319D01*
X125145404Y-82552834D01*
X125171762Y-82550000D01*
X132667200Y-82550000D01*
X132734239Y-82569685D01*
G37*
G04 #@! TD.AperFunction*
G04 #@! TA.AperFunction,Conductor*
G36*
X175842213Y-60619685D02*
G01*
X175862855Y-60636319D01*
X176984626Y-61758091D01*
X176994988Y-61767397D01*
X177000789Y-61772608D01*
X177000795Y-61772613D01*
X177000794Y-61772613D01*
X177029888Y-61796056D01*
X177029888Y-61796057D01*
X177055439Y-61815042D01*
X177149384Y-61859579D01*
X177183942Y-61883942D01*
X180700000Y-65400000D01*
X187348638Y-65400000D01*
X187415677Y-65419685D01*
X187436319Y-65436319D01*
X187463681Y-65463681D01*
X187497166Y-65525004D01*
X187500000Y-65551362D01*
X187500000Y-69848637D01*
X187480315Y-69915676D01*
X187463681Y-69936318D01*
X187086818Y-70313181D01*
X187025495Y-70346666D01*
X186999137Y-70349500D01*
X185718482Y-70349500D01*
X185624695Y-70364354D01*
X185581261Y-70386485D01*
X185524967Y-70400000D01*
X179551362Y-70400000D01*
X179484323Y-70380315D01*
X179463681Y-70363681D01*
X177836319Y-68736319D01*
X177802834Y-68674996D01*
X177800000Y-68648638D01*
X177800000Y-66600000D01*
X176100000Y-64900000D01*
X170851362Y-64900000D01*
X170784323Y-64880315D01*
X170763681Y-64863681D01*
X170541819Y-64641818D01*
X170508334Y-64580495D01*
X170505500Y-64554137D01*
X170505500Y-62419324D01*
X170525185Y-62352285D01*
X170541814Y-62331648D01*
X172237144Y-60636318D01*
X172298467Y-60602834D01*
X172324825Y-60600000D01*
X175775174Y-60600000D01*
X175842213Y-60619685D01*
G37*
G04 #@! TD.AperFunction*
G04 #@! TA.AperFunction,Conductor*
G36*
X145715677Y-60219685D02*
G01*
X145736319Y-60236319D01*
X146300000Y-60800000D01*
X160448638Y-60800000D01*
X160515677Y-60819685D01*
X160536319Y-60836319D01*
X161363682Y-61663682D01*
X161397166Y-61725003D01*
X161400000Y-61751361D01*
X161400000Y-72100000D01*
X163200000Y-73900000D01*
X167200000Y-73900000D01*
X169970876Y-71129123D01*
X170032195Y-71095641D01*
X170082742Y-71095190D01*
X170114002Y-71101408D01*
X170114003Y-71101408D01*
X170263998Y-71101408D01*
X170263999Y-71101408D01*
X170361735Y-71081968D01*
X170444596Y-71026604D01*
X170488377Y-70982824D01*
X170490220Y-70981227D01*
X170494585Y-70976616D01*
X170494598Y-70976604D01*
X170494602Y-70976601D01*
X170549967Y-70893740D01*
X170549967Y-70893737D01*
X170551732Y-70891097D01*
X170605343Y-70846291D01*
X170674668Y-70837582D01*
X170737696Y-70867736D01*
X170774416Y-70927179D01*
X170776451Y-70935790D01*
X170778031Y-70943733D01*
X170778033Y-70943739D01*
X170778034Y-70943740D01*
X170833399Y-71026601D01*
X170888999Y-71063751D01*
X170916260Y-71081966D01*
X170916264Y-71081967D01*
X170989321Y-71096499D01*
X170989324Y-71096500D01*
X171045138Y-71096500D01*
X171112177Y-71116185D01*
X171132819Y-71132819D01*
X173063681Y-73063681D01*
X173097166Y-73125004D01*
X173100000Y-73151362D01*
X173100000Y-73648637D01*
X173080315Y-73715676D01*
X173063681Y-73736318D01*
X170658757Y-76141241D01*
X170645388Y-76152826D01*
X170592453Y-76192453D01*
X170552826Y-76245388D01*
X170541241Y-76258757D01*
X168636319Y-78163681D01*
X168574996Y-78197166D01*
X168548638Y-78200000D01*
X166399999Y-78200000D01*
X161100000Y-83499999D01*
X161100000Y-98548638D01*
X161080315Y-98615677D01*
X161063681Y-98636319D01*
X159781819Y-99918181D01*
X159720496Y-99951666D01*
X159694138Y-99954500D01*
X157531804Y-99954500D01*
X157506359Y-99951861D01*
X157495733Y-99949633D01*
X157495730Y-99949633D01*
X157460508Y-99954023D01*
X157452832Y-99954500D01*
X157448886Y-99954500D01*
X157431615Y-99957381D01*
X157425858Y-99958342D01*
X157371370Y-99965134D01*
X157363857Y-99967371D01*
X157356390Y-99969935D01*
X157316718Y-99991402D01*
X157248389Y-100005993D01*
X157183018Y-99981327D01*
X157170025Y-99970025D01*
X156536319Y-99336319D01*
X156502834Y-99274996D01*
X156500000Y-99248638D01*
X156500000Y-92500000D01*
X155700000Y-91700000D01*
X155651362Y-91700000D01*
X155584323Y-91680315D01*
X155563681Y-91663681D01*
X155236319Y-91336319D01*
X155202834Y-91274996D01*
X155200000Y-91248638D01*
X155200000Y-81800000D01*
X151300000Y-77900000D01*
X151251362Y-77900000D01*
X151184323Y-77880315D01*
X151163681Y-77863681D01*
X151136319Y-77836319D01*
X151102834Y-77774996D01*
X151100000Y-77748638D01*
X151100000Y-73999999D01*
X155097068Y-73999999D01*
X155117350Y-74205932D01*
X155147384Y-74304944D01*
X155177419Y-74403954D01*
X155274966Y-74586450D01*
X155309620Y-74628677D01*
X155406240Y-74746410D01*
X155502860Y-74825702D01*
X155566201Y-74877685D01*
X155748697Y-74975232D01*
X155946717Y-75035300D01*
X155946716Y-75035300D01*
X155965180Y-75037118D01*
X156152651Y-75055583D01*
X156358585Y-75035300D01*
X156556605Y-74975232D01*
X156739101Y-74877685D01*
X156899061Y-74746410D01*
X157030336Y-74586450D01*
X157127883Y-74403954D01*
X157187951Y-74205934D01*
X157208234Y-74000000D01*
X157187951Y-73794066D01*
X157127883Y-73596046D01*
X157030336Y-73413550D01*
X156955511Y-73322375D01*
X156899061Y-73253589D01*
X156774495Y-73151362D01*
X156739101Y-73122315D01*
X156556605Y-73024768D01*
X156358585Y-72964700D01*
X156358583Y-72964699D01*
X156358585Y-72964699D01*
X156152651Y-72944417D01*
X155946718Y-72964699D01*
X155748694Y-73024769D01*
X155638549Y-73083643D01*
X155566201Y-73122315D01*
X155566199Y-73122316D01*
X155566198Y-73122317D01*
X155406240Y-73253589D01*
X155274968Y-73413547D01*
X155177420Y-73596043D01*
X155117350Y-73794067D01*
X155097068Y-73999999D01*
X151100000Y-73999999D01*
X151100000Y-65000000D01*
X155097068Y-65000000D01*
X155117350Y-65205932D01*
X155141175Y-65284473D01*
X155177419Y-65403954D01*
X155274966Y-65586450D01*
X155296840Y-65613104D01*
X155406240Y-65746410D01*
X155502860Y-65825702D01*
X155566201Y-65877685D01*
X155748697Y-65975232D01*
X155946717Y-66035300D01*
X155946716Y-66035300D01*
X155965180Y-66037118D01*
X156152651Y-66055583D01*
X156358585Y-66035300D01*
X156556605Y-65975232D01*
X156739101Y-65877685D01*
X156899061Y-65746410D01*
X157030336Y-65586450D01*
X157127883Y-65403954D01*
X157187951Y-65205934D01*
X157208234Y-65000000D01*
X157187951Y-64794066D01*
X157127883Y-64596046D01*
X157030336Y-64413550D01*
X156978353Y-64350209D01*
X156899061Y-64253589D01*
X156739103Y-64122317D01*
X156739104Y-64122317D01*
X156739101Y-64122315D01*
X156556605Y-64024768D01*
X156358585Y-63964700D01*
X156358583Y-63964699D01*
X156358585Y-63964699D01*
X156152651Y-63944417D01*
X155946718Y-63964699D01*
X155748694Y-64024769D01*
X155638549Y-64083643D01*
X155566201Y-64122315D01*
X155566199Y-64122316D01*
X155566198Y-64122317D01*
X155406240Y-64253589D01*
X155274968Y-64413547D01*
X155274966Y-64413550D01*
X155247214Y-64465470D01*
X155177420Y-64596043D01*
X155117350Y-64794067D01*
X155097068Y-65000000D01*
X151100000Y-65000000D01*
X151100000Y-64000000D01*
X151000000Y-63900000D01*
X136551362Y-63900000D01*
X136484323Y-63880315D01*
X136463681Y-63863681D01*
X135836319Y-63236319D01*
X135802834Y-63174996D01*
X135800000Y-63148638D01*
X135800000Y-60651361D01*
X135819685Y-60584322D01*
X135836314Y-60563685D01*
X136163681Y-60236318D01*
X136225004Y-60202834D01*
X136251362Y-60200000D01*
X145648638Y-60200000D01*
X145715677Y-60219685D01*
G37*
G04 #@! TD.AperFunction*
G04 #@! TA.AperFunction,Conductor*
G36*
X146200000Y-55200000D02*
G01*
X146200000Y-56800000D01*
X118899999Y-56800000D01*
X110298000Y-65401999D01*
X110298000Y-65402000D01*
X110298000Y-99448000D01*
X119075412Y-108225412D01*
X128600148Y-108251173D01*
X128667132Y-108271039D01*
X128687492Y-108287492D01*
X130499825Y-110099825D01*
X184036653Y-110006066D01*
X191782000Y-102344193D01*
X191782000Y-101481339D01*
X191801685Y-101414301D01*
X191824806Y-101387620D01*
X191831122Y-101382146D01*
X191831128Y-101382143D01*
X191865109Y-101342925D01*
X191868092Y-101339720D01*
X191879221Y-101328593D01*
X191888637Y-101316014D01*
X191891417Y-101312564D01*
X191906133Y-101295581D01*
X191925377Y-101273373D01*
X191927375Y-101268995D01*
X191940907Y-101246189D01*
X191943796Y-101242331D01*
X191944628Y-101240102D01*
X191961919Y-101193738D01*
X191963614Y-101189645D01*
X191985165Y-101142457D01*
X191985850Y-101137685D01*
X191992409Y-101111992D01*
X191994091Y-101107483D01*
X191997791Y-101055740D01*
X191998265Y-101051340D01*
X192000500Y-101035799D01*
X192000500Y-101020094D01*
X192000658Y-101015669D01*
X192004359Y-100963927D01*
X192003332Y-100959206D01*
X192000500Y-100932858D01*
X192000500Y-81367143D01*
X192003334Y-81340785D01*
X192004359Y-81336073D01*
X192000658Y-81284329D01*
X192000500Y-81279904D01*
X192000500Y-81264201D01*
X191998264Y-81248657D01*
X191997791Y-81244254D01*
X191994091Y-81192517D01*
X191992407Y-81188002D01*
X191985850Y-81162312D01*
X191985165Y-81157543D01*
X191963612Y-81110351D01*
X191961932Y-81106295D01*
X191943796Y-81057669D01*
X191940905Y-81053807D01*
X191927379Y-81031010D01*
X191925377Y-81026627D01*
X191902030Y-80999683D01*
X191891411Y-80987427D01*
X191888633Y-80983979D01*
X191879229Y-80971417D01*
X191879224Y-80971412D01*
X191879221Y-80971407D01*
X191868097Y-80960283D01*
X191865103Y-80957067D01*
X191831128Y-80917857D01*
X191831127Y-80917856D01*
X191831126Y-80917855D01*
X191824797Y-80912371D01*
X191787023Y-80853593D01*
X191782000Y-80818658D01*
X191782000Y-64151000D01*
X185698763Y-58067763D01*
X191145787Y-58067763D01*
X191175413Y-58337013D01*
X191175415Y-58337024D01*
X191243926Y-58599082D01*
X191243928Y-58599088D01*
X191349870Y-58848390D01*
X191387338Y-58909783D01*
X191490979Y-59079605D01*
X191490986Y-59079615D01*
X191664253Y-59287819D01*
X191664259Y-59287824D01*
X191816628Y-59424346D01*
X191865998Y-59468582D01*
X192091910Y-59618044D01*
X192337176Y-59733020D01*
X192337183Y-59733022D01*
X192337185Y-59733023D01*
X192596557Y-59811057D01*
X192596564Y-59811058D01*
X192596569Y-59811060D01*
X192864561Y-59850500D01*
X192864566Y-59850500D01*
X193067636Y-59850500D01*
X193119133Y-59846730D01*
X193270156Y-59835677D01*
X193382758Y-59810593D01*
X193534546Y-59776782D01*
X193534548Y-59776781D01*
X193534553Y-59776780D01*
X193787558Y-59680014D01*
X194023777Y-59547441D01*
X194238177Y-59381888D01*
X194426186Y-59186881D01*
X194583799Y-58966579D01*
X194683549Y-58772564D01*
X194707649Y-58725690D01*
X194707651Y-58725684D01*
X194707656Y-58725675D01*
X194795118Y-58469305D01*
X194844319Y-58202933D01*
X194854212Y-57932235D01*
X194824586Y-57662982D01*
X194756072Y-57400912D01*
X194650130Y-57151610D01*
X194509018Y-56920390D01*
X194419747Y-56813119D01*
X194335746Y-56712180D01*
X194335740Y-56712175D01*
X194134002Y-56531418D01*
X193908092Y-56381957D01*
X193908090Y-56381956D01*
X193662824Y-56266980D01*
X193662819Y-56266978D01*
X193662814Y-56266976D01*
X193403442Y-56188942D01*
X193403428Y-56188939D01*
X193287791Y-56171921D01*
X193135439Y-56149500D01*
X192932369Y-56149500D01*
X192932364Y-56149500D01*
X192729844Y-56164323D01*
X192729831Y-56164325D01*
X192465453Y-56223217D01*
X192465446Y-56223220D01*
X192212439Y-56319987D01*
X191976226Y-56452557D01*
X191976224Y-56452558D01*
X191976223Y-56452559D01*
X191969989Y-56457373D01*
X191761822Y-56618112D01*
X191573822Y-56813109D01*
X191573816Y-56813116D01*
X191416202Y-57033419D01*
X191416199Y-57033424D01*
X191292350Y-57274309D01*
X191292343Y-57274327D01*
X191204884Y-57530685D01*
X191204881Y-57530699D01*
X191155681Y-57797068D01*
X191155680Y-57797075D01*
X191145787Y-58067763D01*
X185698763Y-58067763D01*
X184431000Y-56800000D01*
X174444562Y-56800000D01*
X174377523Y-56780315D01*
X174369636Y-56774803D01*
X174286343Y-56711639D01*
X174145561Y-56656122D01*
X174099926Y-56650642D01*
X174057102Y-56645500D01*
X172870898Y-56645500D01*
X172831853Y-56650188D01*
X172782438Y-56656122D01*
X172641656Y-56711639D01*
X172558364Y-56774803D01*
X172493052Y-56799627D01*
X172483438Y-56800000D01*
X157900000Y-56800000D01*
X157900000Y-55300000D01*
X157700500Y-55100500D01*
X192927086Y-55100500D01*
X192998258Y-55100500D01*
X193001735Y-55100598D01*
X193160703Y-55109524D01*
X193321171Y-55118536D01*
X193328064Y-55119312D01*
X193641766Y-55172613D01*
X193648541Y-55174160D01*
X193954303Y-55262247D01*
X193960863Y-55264544D01*
X194090520Y-55318249D01*
X194254837Y-55386311D01*
X194261086Y-55389321D01*
X194539591Y-55543245D01*
X194545453Y-55546928D01*
X194804975Y-55731069D01*
X194810401Y-55735396D01*
X195047657Y-55947422D01*
X195052577Y-55952342D01*
X195210105Y-56128615D01*
X195242017Y-56164325D01*
X195264603Y-56189598D01*
X195268932Y-56195027D01*
X195453068Y-56454542D01*
X195456757Y-56460413D01*
X195564922Y-56656123D01*
X195610674Y-56738905D01*
X195613693Y-56745174D01*
X195735455Y-57039136D01*
X195737754Y-57045703D01*
X195825838Y-57351453D01*
X195827386Y-57358236D01*
X195880685Y-57671923D01*
X195881464Y-57678838D01*
X195899402Y-57998263D01*
X195899500Y-58001740D01*
X195899500Y-110998258D01*
X195899402Y-111001735D01*
X195881464Y-111321161D01*
X195880685Y-111328076D01*
X195827386Y-111641763D01*
X195825838Y-111648546D01*
X195737754Y-111954296D01*
X195735455Y-111960863D01*
X195613693Y-112254825D01*
X195610674Y-112261094D01*
X195456759Y-112539583D01*
X195453062Y-112545465D01*
X195288935Y-112776782D01*
X195268941Y-112804961D01*
X195264603Y-112810401D01*
X195052577Y-113047657D01*
X195047657Y-113052577D01*
X194810401Y-113264603D01*
X194804963Y-113268938D01*
X194545465Y-113453062D01*
X194539583Y-113456759D01*
X194261094Y-113610674D01*
X194254825Y-113613693D01*
X193960863Y-113735455D01*
X193954296Y-113737754D01*
X193648546Y-113825838D01*
X193641763Y-113827386D01*
X193328076Y-113880685D01*
X193321161Y-113881464D01*
X193001735Y-113899402D01*
X192998258Y-113899500D01*
X110001742Y-113899500D01*
X109998265Y-113899402D01*
X109678838Y-113881464D01*
X109671923Y-113880685D01*
X109358236Y-113827386D01*
X109351453Y-113825838D01*
X109045703Y-113737754D01*
X109039136Y-113735455D01*
X108766168Y-113622389D01*
X108745170Y-113613691D01*
X108738905Y-113610674D01*
X108460416Y-113456759D01*
X108454542Y-113453068D01*
X108195027Y-113268932D01*
X108189598Y-113264603D01*
X107952342Y-113052577D01*
X107947422Y-113047657D01*
X107757983Y-112835676D01*
X107735393Y-112810397D01*
X107731069Y-112804975D01*
X107546928Y-112545453D01*
X107543245Y-112539591D01*
X107389321Y-112261086D01*
X107386311Y-112254837D01*
X107313728Y-112079605D01*
X107264544Y-111960863D01*
X107262245Y-111954296D01*
X107258073Y-111939815D01*
X107174160Y-111648541D01*
X107172613Y-111641763D01*
X107165361Y-111599082D01*
X107119312Y-111328064D01*
X107118536Y-111321171D01*
X107104306Y-111067765D01*
X107104306Y-111067763D01*
X108145787Y-111067763D01*
X108175413Y-111337013D01*
X108175415Y-111337024D01*
X108235569Y-111567115D01*
X108243928Y-111599088D01*
X108349870Y-111848390D01*
X108405666Y-111939815D01*
X108490979Y-112079605D01*
X108490986Y-112079615D01*
X108664253Y-112287819D01*
X108664259Y-112287824D01*
X108769240Y-112381887D01*
X108865998Y-112468582D01*
X109091910Y-112618044D01*
X109337176Y-112733020D01*
X109337183Y-112733022D01*
X109337185Y-112733023D01*
X109596557Y-112811057D01*
X109596564Y-112811058D01*
X109596569Y-112811060D01*
X109864561Y-112850500D01*
X109864566Y-112850500D01*
X110067636Y-112850500D01*
X110119133Y-112846730D01*
X110270156Y-112835677D01*
X110383624Y-112810401D01*
X110534546Y-112776782D01*
X110534548Y-112776781D01*
X110534553Y-112776780D01*
X110787558Y-112680014D01*
X111023777Y-112547441D01*
X111238177Y-112381888D01*
X111426186Y-112186881D01*
X111583799Y-111966579D01*
X111657787Y-111822669D01*
X111707649Y-111725690D01*
X111707651Y-111725684D01*
X111707656Y-111725675D01*
X111795118Y-111469305D01*
X111844319Y-111202933D01*
X111849259Y-111067763D01*
X191145787Y-111067763D01*
X191175413Y-111337013D01*
X191175415Y-111337024D01*
X191235569Y-111567115D01*
X191243928Y-111599088D01*
X191349870Y-111848390D01*
X191405666Y-111939815D01*
X191490979Y-112079605D01*
X191490986Y-112079615D01*
X191664253Y-112287819D01*
X191664259Y-112287824D01*
X191769240Y-112381887D01*
X191865998Y-112468582D01*
X192091910Y-112618044D01*
X192337176Y-112733020D01*
X192337183Y-112733022D01*
X192337185Y-112733023D01*
X192596557Y-112811057D01*
X192596564Y-112811058D01*
X192596569Y-112811060D01*
X192864561Y-112850500D01*
X192864566Y-112850500D01*
X193067636Y-112850500D01*
X193119133Y-112846730D01*
X193270156Y-112835677D01*
X193383624Y-112810401D01*
X193534546Y-112776782D01*
X193534548Y-112776781D01*
X193534553Y-112776780D01*
X193787558Y-112680014D01*
X194023777Y-112547441D01*
X194238177Y-112381888D01*
X194426186Y-112186881D01*
X194583799Y-111966579D01*
X194657787Y-111822669D01*
X194707649Y-111725690D01*
X194707651Y-111725684D01*
X194707656Y-111725675D01*
X194795118Y-111469305D01*
X194844319Y-111202933D01*
X194854212Y-110932235D01*
X194824586Y-110662982D01*
X194756072Y-110400912D01*
X194650130Y-110151610D01*
X194509018Y-109920390D01*
X194491531Y-109899377D01*
X194335746Y-109712180D01*
X194335740Y-109712175D01*
X194134002Y-109531418D01*
X193908092Y-109381957D01*
X193908090Y-109381956D01*
X193662824Y-109266980D01*
X193662819Y-109266978D01*
X193662814Y-109266976D01*
X193403442Y-109188942D01*
X193403428Y-109188939D01*
X193287791Y-109171921D01*
X193135439Y-109149500D01*
X192932369Y-109149500D01*
X192932364Y-109149500D01*
X192729844Y-109164323D01*
X192729831Y-109164325D01*
X192465453Y-109223217D01*
X192465446Y-109223220D01*
X192212439Y-109319987D01*
X191976226Y-109452557D01*
X191761822Y-109618112D01*
X191573822Y-109813109D01*
X191573816Y-109813116D01*
X191416202Y-110033419D01*
X191416199Y-110033424D01*
X191292350Y-110274309D01*
X191292343Y-110274327D01*
X191204884Y-110530685D01*
X191204881Y-110530699D01*
X191155681Y-110797068D01*
X191155680Y-110797075D01*
X191145787Y-111067763D01*
X111849259Y-111067763D01*
X111854212Y-110932235D01*
X111824586Y-110662982D01*
X111756072Y-110400912D01*
X111650130Y-110151610D01*
X111509018Y-109920390D01*
X111491531Y-109899377D01*
X111335746Y-109712180D01*
X111335740Y-109712175D01*
X111134002Y-109531418D01*
X110908092Y-109381957D01*
X110908090Y-109381956D01*
X110662824Y-109266980D01*
X110662819Y-109266978D01*
X110662814Y-109266976D01*
X110403442Y-109188942D01*
X110403428Y-109188939D01*
X110287791Y-109171921D01*
X110135439Y-109149500D01*
X109932369Y-109149500D01*
X109932364Y-109149500D01*
X109729844Y-109164323D01*
X109729831Y-109164325D01*
X109465453Y-109223217D01*
X109465446Y-109223220D01*
X109212439Y-109319987D01*
X108976226Y-109452557D01*
X108761822Y-109618112D01*
X108573822Y-109813109D01*
X108573816Y-109813116D01*
X108416202Y-110033419D01*
X108416199Y-110033424D01*
X108292350Y-110274309D01*
X108292343Y-110274327D01*
X108204884Y-110530685D01*
X108204881Y-110530699D01*
X108155681Y-110797068D01*
X108155680Y-110797075D01*
X108145787Y-111067763D01*
X107104306Y-111067763D01*
X107100598Y-111001735D01*
X107100500Y-110998258D01*
X107100500Y-58067763D01*
X108145787Y-58067763D01*
X108175413Y-58337013D01*
X108175415Y-58337024D01*
X108243926Y-58599082D01*
X108243928Y-58599088D01*
X108349870Y-58848390D01*
X108387338Y-58909783D01*
X108490979Y-59079605D01*
X108490986Y-59079615D01*
X108664253Y-59287819D01*
X108664259Y-59287824D01*
X108816628Y-59424346D01*
X108865998Y-59468582D01*
X109091910Y-59618044D01*
X109337176Y-59733020D01*
X109337183Y-59733022D01*
X109337185Y-59733023D01*
X109596557Y-59811057D01*
X109596564Y-59811058D01*
X109596569Y-59811060D01*
X109864561Y-59850500D01*
X109864566Y-59850500D01*
X110067636Y-59850500D01*
X110119133Y-59846730D01*
X110270156Y-59835677D01*
X110382758Y-59810593D01*
X110534546Y-59776782D01*
X110534548Y-59776781D01*
X110534553Y-59776780D01*
X110787558Y-59680014D01*
X111023777Y-59547441D01*
X111238177Y-59381888D01*
X111426186Y-59186881D01*
X111583799Y-58966579D01*
X111683549Y-58772564D01*
X111707649Y-58725690D01*
X111707651Y-58725684D01*
X111707656Y-58725675D01*
X111795118Y-58469305D01*
X111844319Y-58202933D01*
X111854212Y-57932235D01*
X111824586Y-57662982D01*
X111756072Y-57400912D01*
X111650130Y-57151610D01*
X111509018Y-56920390D01*
X111419747Y-56813119D01*
X111335746Y-56712180D01*
X111335740Y-56712175D01*
X111134002Y-56531418D01*
X110908092Y-56381957D01*
X110908090Y-56381956D01*
X110662824Y-56266980D01*
X110662819Y-56266978D01*
X110662814Y-56266976D01*
X110403442Y-56188942D01*
X110403428Y-56188939D01*
X110287791Y-56171921D01*
X110135439Y-56149500D01*
X109932369Y-56149500D01*
X109932364Y-56149500D01*
X109729844Y-56164323D01*
X109729831Y-56164325D01*
X109465453Y-56223217D01*
X109465446Y-56223220D01*
X109212439Y-56319987D01*
X108976226Y-56452557D01*
X108976224Y-56452558D01*
X108976223Y-56452559D01*
X108969989Y-56457373D01*
X108761822Y-56618112D01*
X108573822Y-56813109D01*
X108573816Y-56813116D01*
X108416202Y-57033419D01*
X108416199Y-57033424D01*
X108292350Y-57274309D01*
X108292343Y-57274327D01*
X108204884Y-57530685D01*
X108204881Y-57530699D01*
X108155681Y-57797068D01*
X108155680Y-57797075D01*
X108145787Y-58067763D01*
X107100500Y-58067763D01*
X107100500Y-58001740D01*
X107100598Y-57998263D01*
X107113077Y-57776036D01*
X107118536Y-57678826D01*
X107119312Y-57671937D01*
X107172614Y-57358229D01*
X107174158Y-57351461D01*
X107262249Y-57045690D01*
X107264544Y-57039136D01*
X107313730Y-56920390D01*
X107386314Y-56745155D01*
X107389317Y-56738920D01*
X107543249Y-56460400D01*
X107546922Y-56454554D01*
X107731075Y-56195015D01*
X107735385Y-56189610D01*
X107947424Y-55952339D01*
X107952342Y-55947422D01*
X108189610Y-55735385D01*
X108195015Y-55731075D01*
X108454554Y-55546922D01*
X108460400Y-55543249D01*
X108738920Y-55389317D01*
X108745155Y-55386314D01*
X108993123Y-55283602D01*
X109039136Y-55264544D01*
X109045690Y-55262249D01*
X109351461Y-55174158D01*
X109358229Y-55172614D01*
X109671937Y-55119312D01*
X109678826Y-55118536D01*
X109846764Y-55109105D01*
X109998265Y-55100598D01*
X110001742Y-55100500D01*
X110072914Y-55100500D01*
X146299500Y-55100500D01*
X146200000Y-55200000D01*
G37*
G04 #@! TD.AperFunction*
M02*
