M48
INCH
T1C0.0118
T2C0.0118
T3C0.0157
T4C0.0315
T5C0.0394
T6C0.0402
T7C0.0409
%
G90
G05
T1
X4.2913Y-2.5197
X4.2913Y-2.5787
X4.2913Y-2.6378
X4.2913Y-2.6969
X4.2913Y-2.7559
X4.2913Y-2.815
X4.2913Y-2.874
X4.2913Y-2.9331
X4.2913Y-2.9921
X4.2913Y-3.0512
X4.2913Y-3.1102
X4.2913Y-3.1693
X4.2913Y-3.2283
X4.2913Y-3.2874
X4.2913Y-3.3465
X4.2913Y-3.4055
X4.2913Y-3.4646
X4.2913Y-3.5236
X4.2913Y-3.5827
X4.2913Y-3.6417
X4.2913Y-3.7008
X4.2913Y-3.7598
X4.2913Y-3.8189
X4.2913Y-3.878
X4.2913Y-3.937
X4.2913Y-4.0157
X4.3307Y-2.4803
X4.3307Y-4.0551
X4.3701Y-2.4409
X4.3701Y-4.0945
X4.4094Y-2.4016
X4.4094Y-4.1339
X4.4488Y-2.3622
X4.4488Y-4.1732
X4.4882Y-2.3228
X4.4882Y-4.2126
X4.5276Y-2.2835
X4.5276Y-4.252
X4.5669Y-2.2441
X4.5669Y-4.2913
X4.6063Y-2.2047
X4.6063Y-4.3307
X4.6457Y-4.3701
X4.685Y-2.1949
X4.685Y-4.4094
X4.7638Y-2.1949
X4.7638Y-4.4094
X4.8425Y-2.1949
X4.8425Y-4.4094
X4.9213Y-2.1949
X4.9213Y-4.4094
X5.0Y-2.1949
X5.0Y-4.4094
X5.0787Y-2.1949
X5.0787Y-4.4094
X5.1575Y-2.1949
X5.1575Y-4.4094
X5.2362Y-2.1949
X5.2362Y-4.4094
X5.315Y-2.1949
X5.315Y-4.4094
X5.3937Y-2.1949
X5.3937Y-4.4094
X5.4724Y-2.1949
X5.4724Y-4.4094
X5.5512Y-2.1949
X5.5512Y-4.4094
X5.6299Y-2.1949
X5.6299Y-4.4094
X5.7087Y-2.1949
X5.7087Y-4.4094
X5.7874Y-2.1949
X5.7874Y-2.3622
X5.7874Y-4.4094
X5.8465Y-2.3622
X5.8661Y-2.1949
X5.8661Y-4.4094
X5.9055Y-2.3622
X5.9134Y-2.5748
X5.9134Y-2.6181
X5.9134Y-2.7165
X5.9134Y-2.7598
X5.9134Y-2.8543
X5.9134Y-2.8976
X5.9134Y-2.9882
X5.9134Y-3.0315
X5.9449Y-2.1949
X5.9449Y-4.4094
X5.9646Y-2.3622
X6.0236Y-2.1949
X6.0236Y-2.3622
X6.0236Y-4.4094
X6.0827Y-2.3622
X6.1024Y-2.1949
X6.1024Y-4.4094
X6.1417Y-2.3622
X6.1811Y-2.1949
X6.1811Y-4.4094
X6.2598Y-2.1949
X6.2598Y-4.4094
X6.3386Y-4.4094
X6.378Y-2.1949
X6.4173Y-4.4094
X6.4567Y-2.1949
X6.4961Y-4.4094
X6.5354Y-2.1949
X6.5748Y-4.4094
X6.6142Y-2.1949
X6.6496Y-3.8346
X6.6535Y-4.4094
X6.7028Y-2.1949
X6.7047Y-3.1811
X6.7047Y-3.6181
X6.7087Y-3.315
X6.7323Y-4.4094
X6.7742Y-2.1947
X6.8071Y-3.2165
X6.811Y-4.4094
X6.8529Y-2.1947
X6.8898Y-4.4094
X6.9213Y-3.5118
X6.9317Y-2.1947
X6.9685Y-4.4094
X6.9843Y-3.0
X7.0104Y-2.1947
X7.0236Y-3.2205
X7.0315Y-3.5787
X7.0472Y-4.4094
X7.0891Y-2.1947
X7.126Y-4.4094
X7.1679Y-2.1947
X7.1929Y-3.6575
X7.2047Y-4.4094
X7.2466Y-2.1947
X7.2835Y-4.4094
X7.2953Y-3.2913
X7.313Y-2.2146
X7.3425Y-4.3701
X7.3622Y-2.2638
X7.4016Y-4.311
X7.4114Y-2.313
X7.4528Y-2.3622
X7.4606Y-4.252
X7.5039Y-2.4094
X7.5197Y-4.1929
X7.5591Y-2.4646
X7.5787Y-4.1339
X7.6142Y-2.5157
X7.6378Y-2.5984
X7.6378Y-2.6575
X7.6378Y-2.7165
X7.6378Y-2.7756
X7.6378Y-2.8346
X7.6378Y-2.8937
X7.6378Y-2.9528
X7.6378Y-3.0118
X7.6378Y-3.0709
X7.6378Y-3.1299
X7.6378Y-3.189
X7.6378Y-3.248
X7.6378Y-3.3071
X7.6378Y-3.3661
X7.6378Y-3.4252
X7.6378Y-3.4843
X7.6378Y-3.5433
X7.6378Y-3.6024
X7.6378Y-3.6614
X7.6378Y-3.7205
X7.6378Y-3.7795
X7.6378Y-3.8386
X7.6378Y-3.8976
X7.6378Y-3.9724
X7.6378Y-4.0591
T2
X5.97Y-4.0
X5.97Y-4.04
X5.97Y-4.08
T3
X4.4Y-3.0
X4.4Y-3.05
X4.4Y-3.1
X4.45Y-3.0
X4.45Y-3.05
X4.45Y-3.1
X4.5Y-3.0
X4.5Y-3.05
X4.5Y-3.1
X4.565Y-3.33
X4.59Y-3.53
X4.634Y-4.122
X4.6417Y-3.7087
X4.665Y-3.345
X4.75Y-3.135
X4.752Y-3.7008
X4.7859Y-2.9659
X4.845Y-3.035
X4.87Y-3.4
X4.87Y-3.69
X4.96Y-3.28
X4.96Y-3.33
X4.96Y-3.38
X5.01Y-3.28
X5.01Y-3.33
X5.01Y-3.38
X5.06Y-3.28
X5.06Y-3.33
X5.06Y-3.38
X5.067Y-3.745
X5.068Y-4.03
X5.11Y-3.28
X5.11Y-3.33
X5.11Y-3.38
X5.128Y-3.92
X5.3976Y-3.9685
X5.4567Y-4.0276
X5.4685Y-3.9252
X5.5354Y-3.9528
X5.5591Y-4.0787
X5.6197Y-3.9528
X5.6417Y-4.0787
X5.7047Y-3.9528
X5.7165Y-4.0787
X5.81Y-4.08
X5.95Y-3.675
X5.95Y-3.825
X6.0Y-3.675
X6.0Y-3.725
X6.0Y-3.775
X6.0Y-3.825
X6.05Y-3.675
X6.05Y-3.725
X6.05Y-3.775
X6.05Y-3.825
X6.139Y-4.152
X6.3898Y-2.7165
X6.4Y-4.13
X6.4409Y-4.0472
X6.4409Y-4.2047
X6.4606Y-2.5551
X6.5Y-2.878
X6.5079Y-4.0472
X6.5118Y-4.2047
X6.5394Y-2.5591
X6.6063Y-4.2047
X6.7087Y-4.0472
X6.7087Y-4.2008
X6.7638Y-4.0472
X6.7677Y-4.2008
X6.8346Y-2.8268
X6.8386Y-3.0236
X6.8622Y-2.7756
X7.0666Y-2.7188
X7.0667Y-2.6125
X7.0707Y-2.6665
X7.1137Y-2.6115
X7.1137Y-2.6665
X7.1137Y-2.7145
X7.1597Y-2.6115
X7.1597Y-2.6655
X7.1617Y-2.7165
X7.2017Y-2.6115
X7.2017Y-2.6655
X7.2047Y-2.7165
T4
X5.9843Y-3.2283
X6.1477Y-2.5591
X6.1477Y-2.9134
X6.1811Y-3.2283
X6.2855Y-2.5591
X6.2855Y-2.9134
T5
X4.5231Y-2.5984
X4.5231Y-2.835
X4.9169Y-2.5984
X4.9169Y-2.835
T6
X4.6496Y-2.3543
X5.22Y-3.71
X5.75Y-3.57
X6.46Y-3.12
X6.4764Y-3.5433
X7.126Y-3.9567
X7.3307Y-3.6142
T7
X7.3909Y-3.0283
X7.3909Y-3.1283
X7.3909Y-3.2283
X7.3909Y-3.3283
X7.3909Y-3.4283
X7.4909Y-3.0283
X7.4909Y-3.1283
X7.4909Y-3.2283
X7.4909Y-3.3283
X7.4909Y-3.4283
T0
M30
